<?xml version="1.0" encoding="UTF-8" standalone="no"?>
<!-- Generator: Adobe Illustrator 21.1.0, SVG Export Plug-In . SVG Version: 6.00 Build 0)  -->

<svg
   xmlns:dc="http://purl.org/dc/elements/1.1/"
   xmlns:cc="http://creativecommons.org/ns#"
   xmlns:rdf="http://www.w3.org/1999/02/22-rdf-syntax-ns#"
   xmlns:svg="http://www.w3.org/2000/svg"
   xmlns="http://www.w3.org/2000/svg"
   xmlns:sodipodi="http://sodipodi.sourceforge.net/DTD/sodipodi-0.dtd"
   xmlns:inkscape="http://www.inkscape.org/namespaces/inkscape"
   version="1.1"
   id="Режим_изоляции"
   x="0px"
   y="0px"
   viewBox="0 0 742.13026 83.099998"
   xml:space="preserve"
   sodipodi:docname="logo-opt.svg"
   width="742.13025"
   height="83.099998"
   inkscape:version="0.92.1 r15371"><metadata
     id="metadata3713"><rdf:RDF><cc:Work
         rdf:about=""><dc:format>image/svg+xml</dc:format><dc:type
           rdf:resource="http://purl.org/dc/dcmitype/StillImage" /></cc:Work></rdf:RDF></metadata><defs
     id="defs3711" /><sodipodi:namedview
     pagecolor="#ffffff"
     bordercolor="#666666"
     borderopacity="1"
     objecttolerance="10"
     gridtolerance="10"
     guidetolerance="10"
     inkscape:pageopacity="0"
     inkscape:pageshadow="2"
     inkscape:window-width="1680"
     inkscape:window-height="987"
     id="namedview3709"
     showgrid="false"
     inkscape:zoom="1.9839245"
     inkscape:cx="367.29999"
     inkscape:cy="41.95"
     inkscape:window-x="-8"
     inkscape:window-y="-8"
     inkscape:window-maximized="1"
     inkscape:current-layer="Режим_изоляции" /><style
     type="text/css"
     id="style3680">
	.st0{fill:#252929;}
</style><path
     class="st0"
     d="m 60.2,54 c -1.9,0.3 -3,0.5 -3.6,0.6 C 55,55 53.9,55.5 53.3,56.2 52.5,57.2 52,60 52,64.7 V 75.8 C 44.6,80.5 37.2,82.9 29.6,82.9 21,82.9 13.9,79.6 8.3,73 2.7,66.4 0,57.8 0,47.1 0,37.2 2.5,28.6 7.5,21.5 12.8,14.1 19.4,10.4 27.3,10.4 c 1.6,0 4.3,0.5 8.1,1.4 3.8,1 6.4,1.4 8,1.4 2.4,0 4.1,-0.8 5.1,-2.5 h 2.9 v 21.8 h -1.5 c -5,-12.6 -11.5,-19 -19.6,-19 -6.2,0 -11.1,3.7 -14.5,11.2 -2.9,6.1 -4.3,13.4 -4.3,21.8 0,6.3 0.9,12.1 2.8,17.3 2.1,6 5.1,10.3 9.1,13 2.4,1.6 4.9,2.5 7.4,2.5 2.6,0 4.9,-0.8 6.9,-2.3 2.3,-1.7 3.7,-4.1 4.1,-7 0.2,-1.3 0.3,-3.1 0.3,-5.2 0,-4.9 -0.3,-7.8 -1,-8.7 -0.7,-1 -3,-1.7 -6.8,-2.2 V 51 h 25.8 v 3 z M 393,27 h -2.9 c -2,-3 -4.4,-5.8 -7.5,-8.3 -3.3,-2.7 -6.3,-4.4 -9.1,-4.9 -1.6,-0.3 -3.2,-0.5 -4.8,-0.5 -4,0 -6.4,0.9 -7.3,2.6 -0.6,1.2 -1,4.6 -1,10.1 v 18.2 h 7.3 c 7.3,0 11,-4.3 11.1,-12.8 h 2.9 v 27.4 h -2.9 c -0.4,-5.1 -1.4,-8.3 -2.9,-9.7 -1.3,-1.3 -4,-1.9 -8.1,-1.9 h -7.4 v 25 c 0,3.6 1,5.9 3,7 1.2,0.7 3.5,1 6.8,1 v 2.9 H 342 v -3.2 c 3.7,-0.3 5.9,-0.9 6.8,-1.7 1.2,-1.2 1.7,-4.1 1.7,-8.5 V 22.4 c 0,-3.7 -0.6,-6.1 -1.7,-7.4 -1.1,-1.2 -3.2,-1.8 -6.1,-1.8 h -1 V 10.3 H 388 Z M 84.5,82.9 H 63.8 v -2.3 c 2.5,0 4.1,-0.4 4.9,-1.1 1,-0.9 1.6,-2.9 1.6,-6.1 V 35.3 c 0,-2.7 -0.6,-4.7 -1.7,-5.7 -1,-1 -2.5,-1.5 -4.7,-1.5 v -2.3 h 20.7 v 2.3 c -2.2,0 -3.8,0.5 -4.8,1.4 -1.1,1.1 -1.6,3 -1.6,5.8 v 38.2 c 0,2.7 0.6,4.7 1.7,5.7 1,0.9 2.5,1.4 4.7,1.4 v 2.3 z m 51.7,-28.8 c 0,9.3 -2.2,16.5 -6.5,21.5 -4.2,4.9 -10.1,7.3 -17.6,7.3 -6.6,0 -11.9,-2.7 -16.1,-8.2 -4.2,-5.5 -6.3,-12.3 -6.3,-20.6 0,-8.3 2.2,-15.1 6.6,-20.4 4.4,-5.3 10,-7.9 16.7,-7.9 6.6,0 12.1,2.7 16.5,8 4.5,5.3 6.7,12.1 6.7,20.3 m -8.8,2.2 c 0,-5.4 -0.7,-10.4 -2.1,-14.9 -1.7,-5.3 -4.1,-9.2 -7.4,-11.6 -1.9,-1.4 -4,-2.1 -6.3,-2.1 -4.4,0 -7.8,2.4 -10.2,7.1 -2.1,4 -3.1,8.9 -3.1,14.6 0,5.6 0.7,10.7 2,15.5 1.7,5.7 4.1,9.9 7.3,12.3 1.9,1.5 3.9,2.2 6.1,2.2 1.9,0 3.7,-0.5 5.3,-1.6 2.9,-1.8 5.1,-4.9 6.5,-9.3 1.3,-3.5 1.9,-7.6 1.9,-12.2 m 59.5,26.6 h -5.8 c -2.1,0 -4.1,-1.1 -6.2,-3.3 -1.2,-1.3 -2.8,-3.6 -4.7,-6.6 l -4.3,-7.2 c -1,-1.7 -2.4,-4 -4.5,-7.1 -1,-1.3 -1.9,-1.9 -2.6,-1.9 h -3.4 v 17.1 c 0,2.7 0.6,4.6 1.9,5.7 1,0.8 2.7,1.2 4.9,1.1 V 83 h -21.6 v -2.3 c 2.2,-0.2 3.5,-0.3 4,-0.5 1.6,-0.4 2.5,-1.4 2.9,-2.9 0.2,-0.8 0.2,-1.9 0.2,-3.6 V 35.9 c 0,-1.8 -0.1,-3.1 -0.2,-3.9 -0.2,-1.7 -1.2,-2.8 -2.8,-3.3 -0.6,-0.2 -2,-0.4 -4.1,-0.6 v -2.3 h 24.6 c 3.8,0 7.2,1.2 10.1,3.6 3.4,2.8 5,6.5 5,11.2 0,4.2 -1.2,7.7 -3.7,10.5 -2.2,2.5 -4.9,4.1 -8.2,4.8 1.2,1.5 4.5,6.6 9.9,15.3 1.6,2.6 2.9,4.4 3.8,5.5 1.6,1.9 3.2,3.2 4.9,3.8 v 2.4 z M 171.7,40.4 C 171.7,32.1 168.1,28 161,28 c -2.3,0 -3.8,0.6 -4.6,1.7 -0.7,1.1 -1.1,3.1 -1.1,6.1 v 17.1 h 5 c 7.6,0 11.4,-4.2 11.4,-12.5 M 236,60.1 c -1.5,0.2 -2.4,0.4 -2.8,0.5 -1.2,0.3 -2.1,0.7 -2.5,1.2 -0.7,0.8 -1,3 -1,6.7 v 8.7 c -5.8,3.7 -11.6,5.6 -17.5,5.6 -6.8,0 -12.3,-2.6 -16.7,-7.8 -4.4,-5.2 -6.5,-12 -6.5,-20.4 0,-7.8 2,-14.6 5.9,-20.2 4.1,-5.8 9.3,-8.7 15.5,-8.7 1.3,0 3.4,0.4 6.3,1.1 2.9,0.8 5,1.1 6.3,1.1 1.9,0 3.2,-0.6 4,-1.9 h 2.3 v 17.2 h -1.2 c -3.9,-10 -9,-14.9 -15.4,-14.9 -4.9,0 -8.7,2.9 -11.4,8.8 -2.2,4.8 -3.4,10.6 -3.4,17.2 0,5 0.7,9.5 2.2,13.6 1.6,4.7 4,8.1 7.2,10.3 1.9,1.3 3.8,1.9 5.8,1.9 2,0 3.8,-0.6 5.4,-1.8 1.8,-1.4 2.9,-3.2 3.2,-5.5 0.2,-1 0.2,-2.4 0.2,-4.1 0,-3.8 -0.3,-6.1 -0.8,-6.9 -0.5,-0.8 -2.3,-1.3 -5.3,-1.8 V 57.9 H 236 Z m 24.2,22.8 h -20.7 v -2.3 c 2.5,0 4.1,-0.4 4.9,-1.1 1,-0.9 1.6,-2.9 1.6,-6.1 V 35.3 c 0,-2.7 -0.6,-4.7 -1.7,-5.7 -1,-1 -2.5,-1.5 -4.7,-1.5 v -2.3 h 20.7 v 2.3 c -2.2,0 -3.8,0.5 -4.8,1.4 -1.1,1.1 -1.6,3 -1.6,5.8 v 38.2 c 0,2.7 0.6,4.7 1.7,5.7 1,0.9 2.5,1.4 4.7,1.4 v 2.3 z m 51.7,-28.8 c 0,9.3 -2.2,16.5 -6.5,21.5 -4.2,4.9 -10.1,7.3 -17.6,7.3 -6.6,0 -11.9,-2.7 -16.1,-8.2 -4.2,-5.5 -6.3,-12.3 -6.3,-20.6 0,-8.3 2.2,-15.1 6.6,-20.4 4.4,-5.3 10,-7.9 16.7,-7.9 6.6,0 12.1,2.7 16.5,8 4.5,5.3 6.7,12.1 6.7,20.3 m -8.8,2.4 c 0,-5.4 -0.7,-10.4 -2.1,-14.9 -1.7,-5.3 -4.1,-9.2 -7.4,-11.6 -1.9,-1.4 -4,-2.1 -6.3,-2.1 -4.4,0 -7.8,2.4 -10.2,7.1 -2.1,4 -3.1,8.9 -3.1,14.6 0,5.6 0.7,10.7 2,15.5 1.7,5.7 4.1,9.9 7.3,12.3 1.9,1.5 3.9,2.2 6.1,2.2 1.9,0 3.7,-0.5 5.3,-1.6 2.9,-1.8 5.1,-4.9 6.5,-9.3 1.3,-3.6 1.9,-7.7 1.9,-12.2 M 437.5,68.3 434,82.9 h -38.2 v -2.3 c 2.7,0 4.5,-0.4 5.4,-1.1 1,-0.8 1.4,-2.5 1.4,-5.3 v -39 c 0,-3.2 -0.6,-5.2 -1.7,-6.1 -0.8,-0.6 -2.5,-1 -5.2,-1 v -2.3 h 36.7 l 3.8,12.9 H 434 c -2,-3.3 -4.6,-5.9 -7.6,-7.8 -3,-1.9 -6.2,-2.9 -9.4,-2.9 -2.2,0 -3.8,0.3 -4.7,0.9 -1.3,0.9 -2,2.6 -2,5.2 v 18.3 h 6.7 c 5.3,0 8,-3.3 8,-9.8 h 2.1 V 64.1 H 425 c 0,-6.3 -2.6,-9.5 -7.9,-9.5 h -6.8 v 19.9 c 0,1.2 0.1,2.2 0.3,3 0.4,1.5 1.6,2.4 3.6,2.8 0.8,0.2 2.4,0.2 4.6,0.2 3.4,0 6.4,-1.2 9.1,-3.6 1.7,-1.6 4.1,-4.5 6.9,-8.7 h 2.7 z m 49.2,14.6 h -5.8 c -2.1,0 -4.1,-1.1 -6.2,-3.3 C 473.5,78.3 471.9,76 470,73 l -4.3,-7.2 c -1,-1.7 -2.4,-4 -4.5,-7.1 -1,-1.3 -1.9,-1.9 -2.6,-1.9 h -3.4 v 17.1 c 0,2.7 0.6,4.6 1.9,5.7 1,0.8 2.7,1.2 4.9,1.1 V 83 h -21.6 v -2.3 c 2.2,-0.2 3.5,-0.3 4,-0.5 1.6,-0.4 2.5,-1.4 2.9,-2.9 0.2,-0.8 0.2,-1.9 0.2,-3.6 V 35.9 c 0,-1.8 -0.1,-3.1 -0.2,-3.9 -0.2,-1.7 -1.2,-2.8 -2.8,-3.3 -0.6,-0.2 -2,-0.4 -4.1,-0.6 V 25.8 H 465 c 3.8,0 7.2,1.2 10.1,3.6 3.4,2.8 5,6.5 5,11.2 0,4.2 -1.2,7.7 -3.7,10.5 -2.2,2.5 -4.9,4.1 -8.2,4.8 1.2,1.5 4.5,6.6 9.9,15.3 1.6,2.6 2.9,4.4 3.8,5.5 1.6,1.9 3.2,3.2 4.9,3.8 v 2.4 z M 471.5,41 c 0,-8.6 -3.6,-12.9 -10.7,-12.9 -2.3,0 -3.8,0.6 -4.6,1.7 -0.7,1.2 -1.1,3.3 -1.1,6.3 v 17.8 h 5 c 7.6,0 11.4,-4.3 11.4,-12.9 m 64.3,41.9 H 530 c -2.1,0 -4.1,-1.1 -6.2,-3.3 C 522.6,78.3 521,76 519.1,73 l -4.3,-7.2 c -1,-1.7 -2.4,-4 -4.5,-7.1 -1,-1.3 -1.9,-1.9 -2.6,-1.9 h -3.4 v 17.1 c 0,2.7 0.6,4.6 1.9,5.7 1,0.8 2.7,1.2 4.9,1.1 V 83 h -21.6 v -2.3 c 2.2,-0.2 3.5,-0.3 4,-0.5 1.6,-0.4 2.5,-1.4 2.9,-2.9 0.2,-0.8 0.2,-1.9 0.2,-3.6 V 35.9 c 0,-1.8 -0.1,-3.1 -0.2,-3.9 -0.2,-1.7 -1.2,-2.8 -2.8,-3.3 -0.6,-0.2 -2,-0.4 -4.1,-0.6 v -2.3 h 24.6 c 3.8,0 7.2,1.2 10.1,3.6 3.4,2.8 5,6.5 5,11.2 0,4.2 -1.2,7.7 -3.7,10.5 -2.2,2.5 -4.9,4.1 -8.2,4.8 1.2,1.5 4.5,6.6 9.9,15.3 1.6,2.6 2.9,4.4 3.8,5.5 1.6,1.9 3.2,3.2 4.8,3.8 z M 520.6,41 c 0,-8.6 -3.6,-12.9 -10.7,-12.9 -2.3,0 -3.8,0.6 -4.5,1.7 -0.7,1.2 -1.1,3.3 -1.1,6.3 v 17.8 h 5 c 7.5,0 11.3,-4.3 11.3,-12.9 m 59.5,27.3 -3.5,14.6 h -38.2 v -2.3 c 2.7,0 4.5,-0.4 5.4,-1.1 1,-0.8 1.4,-2.5 1.4,-5.3 v -39 c 0,-3.2 -0.6,-5.2 -1.7,-6.1 -0.8,-0.6 -2.5,-1 -5.2,-1 V 25.8 H 575 l 3.8,12.9 h -2.2 c -2,-3.3 -4.6,-5.9 -7.6,-7.8 -3,-1.9 -6.2,-2.9 -9.4,-2.9 -2.2,0 -3.8,0.3 -4.7,0.9 -1.3,0.9 -2,2.6 -2,5.2 v 18.3 h 6.7 c 5.3,0 8,-3.3 8,-9.8 h 2.1 v 21.5 h -2.1 c 0,-6.3 -2.6,-9.5 -7.9,-9.5 h -6.8 v 19.9 c 0,1.2 0.1,2.2 0.3,3 0.4,1.5 1.6,2.4 3.6,2.8 0.8,0.2 2.4,0.2 4.6,0.2 3.4,0 6.4,-1.2 9.1,-3.6 1.7,-1.6 4.1,-4.5 6.9,-8.7 h 2.7 z m 46.3,-29.1 h -2.2 c -2,-4.3 -4.2,-7.3 -6.6,-8.9 -2.2,-1.5 -5.4,-2.3 -9.4,-2.3 v 45.9 c 0,2.9 0.7,4.7 2,5.7 0.9,0.6 2.6,1 5,1 v 2.3 h -21.8 v -2.3 c 2,0 3.4,-0.1 4,-0.2 1.6,-0.4 2.5,-1.5 2.8,-3.1 0.2,-0.9 0.2,-2.1 0.2,-3.8 V 28.1 c -3.6,0 -6.7,0.9 -9.1,2.8 -2.1,1.5 -4.4,4.3 -6.9,8.3 h -1.9 l 2.2,-13.4 h 39.5 z m 47.4,0 h -2.2 c -2,-4.3 -4.2,-7.3 -6.6,-8.9 -2.2,-1.5 -5.4,-2.3 -9.4,-2.3 v 45.9 c 0,2.9 0.7,4.7 2,5.7 0.9,0.6 2.6,1 5,1 v 2.3 h -21.7 v -2.3 c 2,0 3.4,-0.1 4,-0.2 1.6,-0.4 2.5,-1.5 2.8,-3.1 0.2,-0.9 0.2,-2.1 0.2,-3.8 V 28.1 c -3.6,0 -6.7,0.9 -9.1,2.8 -2.1,1.5 -4.4,4.3 -6.9,8.3 H 630 l 2.2,-13.4 h 39.5 z m 24.5,43.7 h -20.7 v -2.3 c 2.5,0 4.1,-0.4 4.9,-1.1 1,-0.9 1.6,-2.9 1.6,-6.1 V 35.3 c 0,-2.7 -0.6,-4.7 -1.7,-5.7 -1,-1 -2.5,-1.5 -4.7,-1.5 v -2.3 h 20.7 v 2.3 c -2.2,0 -3.8,0.5 -4.8,1.4 -1.1,1.1 -1.6,3 -1.6,5.8 v 38.2 c 0,2.7 0.6,4.7 1.7,5.7 1,0.9 2.5,1.4 4.7,1.4 v 2.3 z"
     id="path3682"
     inkscape:connector-curvature="0"
     style="fill:#252929" /><path
     class="st0"
     d="m 719.6,34.5 c 5.2,3.8 12.9,3.8 17.6,-2.3 4.2,-5.5 4,-12.6 -2.1,-17.1 -5.9,-4.3 -12.8,-3.4 -17.3,2.3 -4.8,5.9 -3.6,12.7 1.8,17.1 m -1.8,1.3 c -6,-5.2 -7,-13.5 -1.6,-19.8 6,-7.2 15,-7.1 21,-2 6.6,5.7 6.1,14.4 1.3,19.9 -5.3,6 -14.3,7.2 -20.7,1.9"
     id="path3684"
     inkscape:connector-curvature="0"
     style="fill:#252929" /><path
     class="st0"
     d="m 725.4,23.8 h 1.5 c 1.9,0 3,-0.9 3,-2.3 0,-1.5 -1,-2.2 -2.7,-2.2 -0.9,0 -1.4,0.1 -1.7,0.1 z M 721.7,17 c 1.2,-0.2 3,-0.3 5,-0.3 2.5,0 4.2,0.3 5.4,1.2 1,0.8 1.6,1.9 1.6,3.4 0,2 -1.5,3.4 -2.9,3.9 v 0.1 c 1.2,0.5 1.8,1.5 2.2,3 0.5,1.8 1,3.9 1.3,4.5 h -3.8 c -0.2,-0.5 -0.7,-1.8 -1.1,-3.7 -0.5,-2 -1.2,-2.5 -2.7,-2.6 h -1.1 v 6.3 h -3.7 z"
     id="path3686"
     inkscape:connector-curvature="0"
     style="fill:#252929" /><g
     id="g3706"
     transform="translate(-24.6,-21.1)"><path
       d="m 105.9,36.4 h -2.5 l -2.8,-8.1 -2.8,8.1 h -2.4 l -4,-11 h 2.4 l 2.8,8.6 2.8,-8.6 h 2.5 l 2.8,8.6 2.8,-8.6 h 2.4 z"
       id="path3688"
       inkscape:connector-curvature="0" /><path
       d="m 118.1,25.3 c 1.3,0 2.3,0.4 3,1.1 0.7,0.8 1.1,1.8 1.1,3.1 v 6.8 h -2.4 v -6.2 c 0,-0.8 -0.2,-1.5 -0.7,-2 -0.5,-0.5 -1.1,-0.7 -1.9,-0.7 -1,0 -1.7,0.3 -2.3,1 -0.6,0.6 -0.8,1.5 -0.8,2.4 v 5.4 h -2.4 V 21.1 h 2.4 v 6.5 c 0.7,-1.6 2,-2.3 4,-2.3 z"
       id="path3690"
       inkscape:connector-curvature="0" /><path
       d="m 130,25.3 c 1.7,0 3.1,0.5 4.1,1.5 1.1,1 1.6,2.4 1.6,4 0,1.7 -0.5,3 -1.6,4 -1.1,1 -2.4,1.5 -4.1,1.5 -1.7,0 -3.1,-0.5 -4.1,-1.5 -1.1,-1 -1.6,-2.4 -1.6,-4 0,-1.7 0.5,-3 1.6,-4 1,-1 2.4,-1.5 4.1,-1.5 z m 0,2 c -1,0 -1.8,0.3 -2.4,1 -0.6,0.7 -0.9,1.5 -0.9,2.6 0,1.1 0.3,1.9 0.9,2.6 0.6,0.7 1.4,1 2.4,1 1,0 1.8,-0.3 2.4,-1 0.6,-0.7 0.9,-1.5 0.9,-2.6 0,-1 -0.3,-1.9 -0.9,-2.6 -0.6,-0.6 -1.4,-1 -2.4,-1 z"
       id="path3692"
       inkscape:connector-curvature="0" /><path
       d="m 140.7,36.4 h -2.4 V 21.1 h 2.4 z"
       id="path3694"
       inkscape:connector-curvature="0" /><path
       d="m 148.8,25.3 c 1.9,0 3.3,0.6 4.1,1.7 0.8,1.1 1.2,2.7 1,4.8 h -8.3 c 0.2,0.9 0.6,1.5 1.2,2 0.6,0.5 1.3,0.7 2.2,0.7 1.2,0 2.3,-0.4 3.1,-1.3 l 1.3,1.3 c -1.1,1.2 -2.6,1.9 -4.5,1.9 -1.7,0 -3.1,-0.5 -4.1,-1.5 -1,-1 -1.5,-2.4 -1.5,-4 0,-1.7 0.5,-3 1.5,-4 1.1,-1.1 2.4,-1.6 4,-1.6 z m -3.2,4.8 h 6.3 c 0,-0.9 -0.3,-1.6 -0.9,-2.1 -0.6,-0.5 -1.3,-0.8 -2.2,-0.8 -0.9,0 -1.6,0.3 -2.2,0.8 -0.5,0.5 -0.8,1.2 -1,2.1 z"
       id="path3696"
       inkscape:connector-curvature="0" /><path
       d="m 159.7,25.3 c 1.5,0 2.8,0.4 3.8,1.1 l -0.9,1.8 c -1,-0.6 -2.1,-1 -3.2,-1 -1.1,0 -1.6,0.4 -1.6,1.1 0,0.4 0.2,0.7 0.6,0.9 0.4,0.2 0.9,0.4 1.5,0.6 0.6,0.2 1.1,0.3 1.7,0.6 0.6,0.2 1.1,0.6 1.5,1 0.4,0.5 0.6,1.1 0.6,1.8 0,1.1 -0.4,1.9 -1.2,2.4 -0.8,0.6 -1.8,0.8 -3,0.8 -0.8,0 -1.6,-0.1 -2.4,-0.4 -0.8,-0.3 -1.5,-0.6 -2,-1.1 l 0.8,-1.7 c 0.5,0.4 1,0.7 1.7,1 0.7,0.2 1.3,0.4 2,0.4 0.5,0 1,-0.1 1.3,-0.3 0.3,-0.2 0.5,-0.5 0.5,-0.9 0,-0.4 -0.2,-0.7 -0.6,-1 -0.4,-0.2 -0.9,-0.4 -1.4,-0.6 -0.6,-0.2 -1.1,-0.3 -1.7,-0.5 -0.6,-0.2 -1,-0.5 -1.4,-1 -0.4,-0.5 -0.6,-1.1 -0.6,-1.8 0,-1 0.4,-1.8 1.2,-2.4 0.7,-0.5 1.7,-0.8 2.8,-0.8 z"
       id="path3698"
       inkscape:connector-curvature="0" /><path
       d="M 172.7,36.4 V 35 c -0.8,1 -2,1.4 -3.6,1.4 -1.2,0 -2.1,-0.3 -2.8,-1 -0.7,-0.6 -1.1,-1.5 -1.1,-2.4 0,-1 0.4,-1.8 1.1,-2.4 0.7,-0.6 1.7,-0.9 3.1,-0.9 h 3.3 v -0.3 c 0,-0.7 -0.2,-1.2 -0.7,-1.6 -0.4,-0.4 -1.1,-0.6 -2,-0.6 -1.1,0 -2.1,0.4 -3.2,1.1 l -1,-1.7 c 0.8,-0.5 1.6,-0.8 2.3,-1.1 0.7,-0.3 1.5,-0.3 2.5,-0.3 1.4,0 2.5,0.3 3.3,1 0.8,0.7 1.2,1.6 1.2,2.8 v 7.2 h -2.4 z m -3.1,-1.8 c 0.8,0 1.6,-0.2 2.1,-0.6 0.6,-0.4 0.9,-0.9 1,-1.5 v -1 h -3 c -0.8,0 -1.4,0.1 -1.7,0.3 -0.4,0.2 -0.5,0.6 -0.5,1.1 0,0.5 0.2,0.9 0.6,1.2 0.3,0.3 0.8,0.5 1.5,0.5 z"
       id="path3700"
       inkscape:connector-curvature="0" /><path
       d="m 180.7,36.4 h -2.4 V 21.1 h 2.4 z"
       id="path3702"
       inkscape:connector-curvature="0" /><path
       d="m 188.9,25.3 c 1.9,0 3.3,0.6 4.1,1.7 0.8,1.1 1.2,2.7 1,4.8 h -8.3 c 0.2,0.9 0.6,1.5 1.2,2 0.6,0.5 1.3,0.7 2.2,0.7 1.2,0 2.3,-0.4 3.1,-1.3 l 1.3,1.3 c -1.1,1.2 -2.6,1.9 -4.5,1.9 -1.7,0 -3.1,-0.5 -4.1,-1.5 -1,-1 -1.5,-2.4 -1.5,-4 0,-1.7 0.5,-3 1.5,-4 1,-1.1 2.3,-1.6 4,-1.6 z m -3.2,4.8 h 6.3 c 0,-0.9 -0.3,-1.6 -0.9,-2.1 -0.6,-0.5 -1.3,-0.8 -2.2,-0.8 -0.9,0 -1.6,0.3 -2.2,0.8 -0.5,0.5 -0.9,1.2 -1,2.1 z"
       id="path3704"
       inkscape:connector-curvature="0" /></g></svg>