<?xml version="1.0" encoding="utf-8"?>
<!-- Generator: Adobe Illustrator 21.1.0, SVG Export Plug-In . SVG Version: 6.00 Build 0)  -->
<svg version="1.1" id="Слой_1" xmlns="http://www.w3.org/2000/svg" xmlns:xlink="http://www.w3.org/1999/xlink" x="0px" y="0px"
	 viewBox="0 0 5000 2000" style="enable-background:new 0 0 5000 2000;" xml:space="preserve">
<style type="text/css">
	.st0{fill:#939598;}
	.st1{fill:#252929;}
	.st2{fill:none;stroke:#A1A7AA;stroke-width:1.686;stroke-miterlimit:10;}
	.st3{clip-path:url(#SVGID_2_);fill:#A1A7AA;}
	.st4{clip-path:url(#SVGID_2_);fill:#252929;}
	.st5{clip-path:url(#SVGID_4_);fill:#252929;}
	.st6{clip-path:url(#SVGID_6_);fill:#252929;}
	.st7{clip-path:url(#SVGID_6_);fill:#A1A7AA;}
</style>
<path class="st0" d="M4999.6,1997.2h-332.4l331.4-662.2l1,1.9v-5.2h0l0-0.1v-4.5l-1.7,3.3l-330-662.2h330.6v-2h-331.3l331.3-662
	v-4.5L4665.7,665L4335,1.3l-0.9-1.8l-333,665.5L3670.3,1.3l-0.9-1.8l-333,665.5L3005.7,1.3l-0.9-1.8l-333.2,665.9L2339,1.3l-0.9-1.8
	L2003.5,665L1671.1,1.3l-0.9-1.8L1335.5,665L1003.2,1.3l-0.9-1.8L667.6,665L335.2,1.3l-0.9-1.8L-0.7,665.8v5.8l1.1-2.2L332,1331.7
	H-0.7v2h333.4l-333.9,664l-0.7,1.4h5001.6V1997.2z M4666.4,669.5l330,662.2H4335L4666.4,669.5z M4333.4,1330.5l-330-662.2h661.4
	L4333.4,1330.5z M4334.1,4l330,662.2h-661.4L4334.1,4z M4001.8,669.5l330,662.2h-661.4L4001.8,669.5z M3668.7,1330.5l-330-662.2
	h661.4L3668.7,1330.5z M3669.4,4l330,662.2h-661.4L3669.4,4z M3337.1,669.5l330,662.2H3006l-0.1-0.2L3337.1,669.5z M3004.7,1329.3
	L2763,846.7l-88.9-178.4h661.4L3004.7,1329.3z M3004.8,4l330,662.2h-661.4L3004.8,4z M2672.3,669.9l89.1,177.9l241.1,483.9h-661.4
	L2672.3,669.9z M2337.4,1330.5l-331.6-662.3h664.7L2337.4,1330.5z M2338.1,4l331.6,662.3h-664.7L2338.1,4z M2004.2,669.5
	l331.6,662.2h-664.7L2004.2,669.5z M1669.5,1330.5l-331.6-662.3h664.7L1669.5,1330.5z M1670.2,4l331.6,662.3h-664.7L1670.2,4z
	 M1336.2,669.5l331.6,662.3h-664.7L1336.2,669.5z M1001.6,1330.5L669.9,668.3h664.7L1001.6,1330.5z M1002.3,4l331.6,662.3H669.2
	L1002.3,4z M668.3,669.5l331.6,662.3H335.3L668.3,669.5z M334.3,4L666,666.3H1.3L334.3,4z M2,668.3h664.7l-333,662.3L2,668.3z
	 M1.3,1997.2l333-662.2L666,1997.2H1.3z M336,1333.7h664.7l-333,662.2L336,1333.7z M669.2,1997.2l333-662.2l331.6,662.2H669.2z
	 M1003.9,1333.7h664.7l-333,662.2L1003.9,1333.7z M1337.1,1997.2l333-662.2l331.6,662.2H1337.1z M1671.8,1333.7h664.7l-333,662.2
	L1671.8,1333.7z M2005.1,1997.2l333-662.2l331.6,662.2H2005.1z M2339.7,1333.7h663.5l-331.6,662.7L2339.7,1333.7z M2673.4,1997.2
	l331.4-662.2l330,662.2H2673.4z M3006.4,1333.7h661.4L3336.4,1996L3006.4,1333.7z M3338.1,1997.2l331.4-662.2l330,662.2H3338.1z
	 M3671.1,1333.7h661.4L4001.1,1996L3671.1,1333.7z M4002.7,1997.2l331.4-662.2l330,662.2H4002.7z M4335.7,1333.7h661.4L4665.7,1996
	L4335.7,1333.7z"/>
<g class="rotate">
	<polygon class="st1" points="2340.8,1331.3 2671.9,670.1 3001.7,1331.3 	"/>
	<polygon class="st2" points="2340.8,1331.3 2671.9,670.1 3001.7,1331.3 	"/>
	<g>
		<defs>
			<rect id="SVGID_1_" x="1381.1" y="78.6" width="2580.2" height="1807.9"/>
		</defs>
		<clipPath id="SVGID_2_">
			<use xlink:href="#SVGID_1_"  style="overflow:visible;"/>
		</clipPath>
		<path class="st3" d="M2744,1144.6c-0.8,0.6-1.3,1.1-1.9,1.6c-1,0.9-1.9,1.8-3,2.6c-1.5,1-2.2,0.7-2.3-1.2
			c-0.1-1.7-0.4-3.2-1.7-4.5c-0.7,0.3-1.3,0.7-2,0.9c-1.9,0.6-2.8-0.1-2.8-2c0-0.5,0-1.1,0-1.6c0.2-1.7-0.3-3.1-1.7-4.2
			c-0.6-0.5-1.1-1.3-1.5-2c-0.8-1.5-1.8-2.1-3.1-1.2c-1.8,1.2-3.1,0.5-4.3-0.7c-3.6-3.6-7.7-6.9-10.4-11.4c-2.4-4-5.8-5.5-10.5-4.7
			c-5.2,0.9-5.2,0.7-8.9-2.9c-1.4-1.4-2.8-2.7-4.1-4.1c-1.9-2-3.9-3.7-6.4-4.8c-2.1-0.9-3-2.7-3.3-4.9c-0.1-0.8-0.1-1.5-0.4-2.3
			c-0.6-2.1-1.7-3.7-4.3-3.7c-2,0-3-1.6-4.1-3c-0.2-0.2-0.3-0.6-0.4-0.8c-1.4-3-3-3.7-6.2-2.7c-3.7,1.2-4.1,1.1-5.3-2.6
			c-0.7-2.1-1-4.3-1.5-6.4c-0.2-0.8-0.6-1.5-1.1-2.2c-1.8-2.2-3.7-4.3-5.4-6.6c-1.1-1.3-1.6-2.9-1.9-4.6c-0.4-2.2-1.1-4.3-1.8-6.4
			c-0.7-2.3-1.2-4.5-1.5-6.9c-0.3-2.8-1.1-5.5-1.9-8.2c-0.2-0.7-1.2-1.3-2-1.7c-0.7-0.3-1.6-0.3-2.5-0.3c-3.1,0-5.7-1.1-8.1-2.9
			c-0.8-0.6-1.5-1.4-2-2.2c-0.7-1.3-1.8-2.1-3.1-2.6c-2.2-0.8-4.4-1.3-6.3-2.8c-0.8-0.6-1.8-0.6-2.6,0c-1.2,0.8-2.4,1.7-3.4,2.7
			c-2.1,2.4-4.1,5-6.1,7.5c-0.7,0.8-1.2,1.8-1.7,2.7c-1.1,2.3-2.7,3.7-5.5,3.3c-0.3,0-0.6,0-0.9,0c-2.8-0.1-3.6-0.9-3.2-3.7
			c0.1-1,0.5-1.9,0.8-2.9c0.6-1.9,0.3-1.8-1.3-2.9c-1.9-1.4-3.8-2.3-6.2-2.4c-1.1,0-1.6-1.2-1.9-2.3c-0.3-0.9-0.6-1.9-1.1-2.7
			c-1.1-1.5-1-3-0.5-4.6c0.3-1,0.7-2,1.2-3c0.6-1.3,0.2-2.4-0.7-3.3c-1-1-1.9-2-2.7-3.1c-1-1.2-1-2.5,0.1-3.8
			c3.2-3.6,3.2-7.9,2.5-12.3c-0.2-1.4-0.5-2.9-0.5-4.3c0-2,1.1-3.3,3.3-3.5c2.3-0.2,4.6,0.1,6.9-0.2c2.8-0.3,5.7-0.6,8.4-1.4
			c3.1-0.9,5.3-3.1,6.7-6c0.7-1.4,1.7-2.5,3.2-3.5c0.2,0.6,0.5,1,0.5,1.5c0.1,4.5,2.5,7.9,5.5,11c0.4,0.4,0.9,0.7,1.3,0.9
			c1.6,0.9,2.5,0.7,3.1-1c0.9-2.8,2.6-4.9,4.5-7.1c1.1-1.3,1.8-2.8,2.7-4.3c1.1-1.8,2.3-2,4-0.7c1.3,1.1,2.5,2.3,3.9,3.2
			c3.4,2,5.7,0.7,5.9-3.1c0.1-1.1,0-2.1,0-3.2c0.1-1,0.4-2,1.5-2c2.6,0.2,3.8-1.2,4.4-3.7c1.8,0,3.5,0,5.3,0c3.6,0.1,7-0.3,10.5-1.3
			c3-0.9,6.1-1.4,9.3-1.9c3.6-0.5,5.5,1.1,6,4.6c0.3,2.1,0.3,2.1,2.5,2.6c0.5,0.1,1.1,0.2,1.6,0.4c3.6,1.7,7.4,2,11.3,1.8
			c2-0.1,4,0,6-0.1c1.2-0.1,2.1,0.3,2.9,1.1c0.9,1,1.8,1.9,2.8,2.8c-0.2,0.4-0.3,0.9-0.6,1.1c-1.9,1.3-2.1,3.2-1.9,5.3
			c0.1,2.1,0.1,4.3,0,6.4c0,1.1,0.3,2,1,2.9c1.4,1.7,2.6,3.6,3.8,5.5c0.4,0.7,1,1.6,0.3,2.6c-0.8,1-1.9,1.2-3.1,1.1
			c-1.2-0.1-1.7-0.8-2-1.9c-0.2-0.8-0.5-2-1-2.2c-2.1-0.8-4.3-1.3-6.5-1.8c-0.4-0.1-1.1,0.5-1.5,1c-1.3,1.2-2.5,2.5-3.7,3.9
			c-1.3-0.7-2.5-0.7-3.4,0.4c-0.2,0.2-0.5,0.4-0.8,0.5c-2.5,0.8-5.1,1.7-8,2.6c-0.3,1.2-0.7,2.6-1.2,4.1c0.7,0.1,1.2,0.1,1.6,0.1
			c2.1,0,2.8,0.5,2.9,2.4c0.1,1.5,0.5,2.6,1.7,3.6c1.1,1,1,1.7,0,2.7c-0.2,0.2-0.4,0.5-0.7,0.6c-2.3,0.9-2.7,2.7-2.6,5
			c0.2,2.3-0.1,4.6,0,6.8c0.2,2.9,1.6,5.2,3.4,7.4c2.4,2.7,5.3,4.6,8.6,6.1c2.9,1.3,5.8,2.5,8.7,3.7c1.8,0.7,2.9,1.8,3,3.9
			c0.3,4.1,1.9,7.9,3.5,11.6c3,6.9,6.3,13.6,10.9,19.6c0.6,0.7,1.1,1.5,1.7,2.1c4.1,4.3,8.3,8.4,13.1,11.9c0.2,0.2,0.5,0.3,1,0.5
			c0.1-0.6,0.3-1,0.3-1.4c0.2-2.8,1.5-3.8,4.3-3.4c1.2,0.2,2.4,0.6,3.5,1c1.9,0.7,3.6,0.3,5.1-1c1.6-1.4,2.5-1.2,3.9,0.3
			c2.2,2.4,2.1,6-0.1,8.5c-0.8,0.9-1.5,1.9-2.1,3c-0.7,1.2-0.6,1.9,0.7,2.7c1.2,0.7,2.4,1.3,3.7,1.8c5.5,2.2,11.1,4.2,16.6,6.4
			c1.5,0.6,3,1.5,4.3,2.6c3.8,3,8,4.8,12.9,5.1c2.1,0.1,3.5,1.2,4,3.2c0.5,1.6,1.5,2.8,2.5,4.1c1.7,2.1,3.3,4.2,4.6,6.6
			c2.1,3.9-1.2,8.5-5.7,8.3c-1.9-0.1-3.1-1.2-3.2-3.2c-0.1-1.3,0.1-2.6,0-3.9c0-2.5-1-3.6-3.4-3.7c-1.7-0.1-3.2-0.5-4.4-1.7
			c-0.9-0.8-1.9-1.2-3.1-1.2c-1.1-0.1-2.3-0.4-3.4-0.6c-3.8-0.8-4.6-0.4-6.8,2.7c-1.6,2.2-3.2,4.3-4.9,6.4c-0.5,0.7-1.2,1.2-1.7,1.9
			c-1.9,2.4-1.9,3.9-0.3,6.4c1.5,2.4,3.7,4.1,6.1,5.5c1.4,0.8,2.8,1.6,4.2,2.5c0.8,0.5,1.5,1.1,2.2,1.7c1.5,1.5,2.2,3.2,1.2,5.4
			c-0.8,1.7-1.8,3.2-3.3,4.3c-1,0.7-1.9,1.6-3,2.1c-3.9,2-4.8,5.5-5.1,9.4c-0.1,1.1,0,2.1-0.2,3.2c-0.4,2.1-1.2,2.7-3.3,3.1
			c-1.4,0.3-2.8,0.8-4.1,1.5c-1.4,0.7-2,2-2,3.6c0,1.1-0.1,2.3-0.4,3.4c-0.3,1.4-1.5,2.1-2.9,2.3c-0.6,0.1-1.2,0-1.8,0
			c-2.4-0.2-3.4-1.1-3.2-3.5c0.2-1.8,0.8-3.6,1.3-5.3c0.5-1.4,1.2-2.6,1.9-3.9c1.1-2,1.3-3.9-0.5-5.6c-1.2-1.2-0.9-2.7-0.7-4.1
			c0.2-1.1,1.2-1.5,2.3-1.6c3.5-0.3,3.9-0.8,3.6-4.2c-0.2-1.8-0.6-3.6-1.2-5.4c-2.2-6.4-4.5-12.7-7.6-18.7
			C2745,1147.3,2744.6,1146.1,2744,1144.6"/>
		<path class="st3" d="M2619.2,1292.7c-0.5-2.6-0.8-5.1-1.5-7.6c-0.7-2.3-1.8-4.5-2.7-6.8c-0.4-0.9-0.8-1.8-1-2.8
			c-0.3-1.7,0.4-2.5,2.1-2.5c2.8,0,5.7,0,8.6,0.1c5.1,0.2,10.2,0.5,15.2,0.7c5.5,0.2,10.9,0.4,16.4,0.6c2.6,0.1,4.7,1.2,6.9,2.4
			c0.3,0.1,0.5,0.3,0.7,0.6c0.6,0.6,0.3,1.4-0.5,1.5c-0.5,0.1-1.1,0.1-1.6-0.1c-3.9-1-7.8-0.6-11.7-0.8c-4.8-0.3-9.7-0.6-14.5-1
			c-3.6-0.2-7.2-0.6-10.8-0.7c-0.9,0-2,0.3-2.8,0.7c-0.4,0.2-0.9,0.9-0.9,1.4c-0.3,4.8,1.3,8.9,5,12c1.8,1.5,4.1,1.7,6.3,1.8
			c4.2,0.3,8.5,0.5,12.7,0.7c1.7,0.1,3.4,0.4,5.1,0.3c2.8-0.1,5.7-0.3,8.5-0.6c1.8-0.2,3.6-0.3,5.2,0.7c0.6,0.4,1,0.8,1.6,1.2
			c-0.6,1.1-1.4,0.8-2.1,0.8c-3.7,0-7.4-0.2-11.1-0.2c-3.9,0-7.7,0-11.6,0c-0.4,0-0.9,0.1-1.6,0.2c0.7,1.5,1.3,2.7,1.9,4
			c1.2,2.7,1,3.4-1.5,5.1c-0.4,0.3-0.9,0.5-1.4,0.7c0.1,0.2,0.2,0.4,0.4,0.6c0.3,0.1,0.5,0.2,0.8,0.2c5.6,0,11.3,0,16.9,0
			c9.9,0.1,19.7,0.2,29.6,0.3c5.7,0.1,11.4,0.2,17.1,0.3c11.6,0.1,23.2,0.1,34.7,0.2c9.4,0.1,18.8,0.2,28.2,0.2
			c6,0.1,12,0.1,18.1,0.2c11.9,0.1,23.9,0.3,35.9,0.5c0.7,0,1.5,0.1,2.4,0.2c-0.7,1.1-1.6,0.8-2.3,0.9c-3.1,0.1-6.2,0.1-9.3,0.1
			c-12.6,0-25.2,0-37.8,0c-15,0-29.9,0.1-44.9,0.2c-13.9,0.1-27.8,0.2-41.7,0.3c-15,0.1-29.9,0.2-44.9,0.3c-1.4,0-2.8,0.1-4.2,0.1
			c-2.9,0-2.9-0.1-3.3-2.9c-0.3-0.1-0.7-0.2-1-0.3c-1.8-0.5-2.2-1-2.1-2.8c0.1-1.7,0.4-3.5,0.5-5.2c0.4-3.2-2.8-5.9-6-5.1
			c-1.2,0.3-1.7,1.2-1.3,2.8c0.8,3.3,1.6,6.7,2.4,10c0.3,1.3,0.5,2.6,0.4,3.8c-0.2,2.5-2.1,3.7-4.6,3c-2.6-0.7-3.2-1.5-3.3-4.2
			c0-1.2,0-2.4-0.1-3.7c0-0.1-0.2-0.2-0.3-0.4c-1.8,0.6-3.7,1.3-5.5,2c-5.5,2-11.2,3-16.9,3.7c-5.4,0.7-10.8,1.5-16.3,1.7
			c-5.8,0.2-11.6,0-17.3-0.2c-3.9-0.1-7.8-0.4-11.7-0.8c-5.3-0.5-10.6-1-15.7-2.5c-2.1-0.6-4.1-1.4-6-2.4c-3.9-2-3.7-5.5-1.7-8.1
			c1.9-2.5,4.3-4.4,6.9-6c8.9-5.7,18.4-10,28.4-13.1c7.4-2.3,15-3.7,22.6-4.6c5.5-0.6,11-0.7,16.6,0.4c-2.2,0.1-4.4,0.2-6.6,0.3
			c-6,0.2-11.9,1.1-17.8,2.5c-6.7,1.5-13.2,3.5-19.6,6c-5.3,2.1-10.6,4.3-14.9,8.2c-1.3,1.2-2.5,2.5-3.4,4c-1.7,2.7-1.3,5.3,0.8,7.8
			c2.7,3.1,6.3,4.4,10.1,5c5.5,0.8,11,1.2,16.6,1c5.6-0.1,11.1,0.2,16.7,0c9.9-0.3,19.7-1.5,29.1-4.7c0.8-0.3,1.6-0.6,2.4-0.9
			c3.9-1.7,4.4-5.9,0.9-8.4c-1.1-0.8-2.5-1.2-3.8-1.5c-4.3-1-8.6,0.1-12.8,0.6c-5.1,0.6-10.2,1.5-15.4,0.6c-1.1-0.2-2.2-0.7-3.2-1.2
			c-0.9-0.5-0.8-1.3,0.1-1.7c1-0.4,2-0.8,3.1-0.9c3.1-0.4,6.3-0.8,9.4-0.8c5.3-0.1,10.6-0.3,15.9,0
			C2612.5,1290.9,2615.6,1291.9,2619.2,1292.7"/>
		<path class="st3" d="M2680.4,1201.6c0.1-2.3,0.9-4.3,2.5-5.9c1.6-1.5,3-1.6,4.4-0.1c0.5,0.6,1.2,1,1.8,1.4c1.4,1,2.6,1.1,4.2,0.1
			c1.7-1.1,3.7-1.8,5.7-2.4c2.3-0.7,2.9-0.3,4,1.9c0.3,0.6,0.8,1.1,1.4,1.5c0.5,0.4,1.1,0.6,1.7,0.7c3.8,1.1,7.8,0.9,11.7,0.9
			c2.7,0,4.9-1.5,6.8-3.1c1-0.8,2-1.1,3.2-0.9c0.7,0.1,1.4,0.2,2,0.4c2.3,0.4,4.4,0.2,6.4-1.3c0.9-0.6,2.1-1,3.2-1.1
			c0.7-0.1,1.9,0.1,2.2,0.6c0.4,0.5,0.2,1.6-0.1,2.3c-0.6,1.5-1.5,2.8-2.2,4.3c-1.9,4-3.8,8-5.7,12c-0.6,1.1-0.3,2,0.4,2.9
			c1.5,1.9,2.9,3.8,4.1,5.8c1.6,2.5,1.5,5-0.7,7.3c-0.7,0.8-1.2,1.9-1.6,3c-0.6,1.5-1.4,2.4-3.2,2.4c-1,0-2,0.2-3,0.5
			c-1.4,0.3-2.4-0.1-3.4-1c-2.5-2.7-5.3-5.1-7.2-8.3c-0.6-1-1.4-1.8-2.2-2.6c-1-1-2.3-1.4-3.7-1.5c-2.5-0.1-4.9-0.4-7.3-0.9
			c-1.1-0.2-2.2-1.1-3.2-1.8c-0.7-0.5-1.4-1.2-2-1.9c-2.1-2.4-4.5-4.4-7.9-4.8c-0.6-0.1-1.1-0.5-1.7-0.7c-1.7-0.5-3.3-1.3-5-1.5
			c-2.4-0.3-3.9-1.4-4.6-3.6C2681.1,1204.7,2680.8,1203.1,2680.4,1201.6"/>
		<path class="st3" d="M2599.4,1119.2c2.1,1.8,3.5,0.6,5-0.6c1-0.8,2.2-1.3,3.4-1.9c1.4-0.8,2.9-1.5,4.3-2.3
			c1.5-0.8,2.9-1.7,4.4-2.5c1.1-0.6,2-0.5,2.9,0.4c4.3,4.2,7.6,8.9,8.1,15c0.2,1.8,0,3.7-0.2,5.5c-0.6,5.4-1.3,10.8-1.9,16.2
			c-0.3,2.7-0.2,5.5-0.7,8.2c-0.4,2.3-1,4.6-1.9,6.8c-0.9,2.3-2,2.7-4.4,2.2c-1.4-0.3-2.8-0.8-4.2-1.2c-1.8-0.5-2.3-0.3-2.4,1.5
			c-0.2,2.5-1.5,4.3-3.6,5.6c-0.6,0.4-1.2,0.7-1.9,0.8c-2.1,0.4-2.8-0.2-3.2-2.2c-0.1-0.8-0.3-1.7-0.8-2.3c-2.1-2.5-2.3-5.4-2.5-8.4
			c-0.1-2-0.3-4-0.7-5.9c-0.5-2.1-0.5-3.9,1-5.6c1.6-1.7,1.9-3.9,2.1-6c0.3-2.1,0.2-4.3,0.4-6.4c0.1-1.2-0.3-2.3-1.1-3.1
			c-0.3-0.3-0.5-0.6-0.8-0.8c-4.2-2.6-3.1-6.7-2.8-10.5C2598,1120.9,2598.8,1120.2,2599.4,1119.2"/>
		<path class="st3" d="M2686.4,1290.7c2.1-0.4,4.3-0.8,6.5-1.2c1.1-0.2,1.9-0.9,2-2c0.1-1.1-0.6-1.9-1.6-2.3
			c-0.9-0.3-1.8-0.7-2.6-0.7c-2.2,0-4.4,0-6.6,0.3c-1.4,0.2-2.8,0.7-4.1,1.4c-0.7,0.4-1.3,1.4-1.3,2.2c-0.1,1,1,1.2,1.8,1.4
			C2682.3,1290.2,2684.3,1290.4,2686.4,1290.7 M2695,1301.9c-0.1,1.5-0.8,1.7-1.6,1.9c-1,0.2-2,0.5-2.9,0.6
			c-5.6,0.7-11.2,1.5-16.8,0.2c-1.2-0.3-2.5-0.8-3.5-1.5c-2.4-1.7-2.3-4.3-1.5-6.7c2.5-7.1,7.7-11.4,15-13.4
			c2.9-0.8,5.8-1.4,8.9-0.4c1.8,0.6,3.2,1.5,4.3,2.9c1.7,2,1.6,3.2-0.6,4.7c-2.7,2-5.8,2.9-9.2,2.4c-3.7-0.5-7.4-1.2-11.2-1.7
			c-0.7-0.1-1.8,0.2-2.3,0.7c-1.8,1.7-2.9,3.9-2.2,6.4c0.7,2.5,2.3,4.3,5,5c3.4,0.9,6.7,0.5,10.1,0.1c1.8-0.2,3.6-0.7,5.4-1
			C2693,1302,2694,1302,2695,1301.9"/>
		<path class="st3" d="M2785.3,1301.8c-0.4,0.3-0.8,0.9-1.2,0.9c-2.1,0.1-4.3,0.3-6.4,0.2c-1.2-0.1-1.8-1.2-1.7-2.8
			c0.1-1.9,0.3-3.8,0.4-5.7c0-0.4,0-0.9-0.1-1.5h-3.9c-0.2,2.3-0.5,4.6-0.7,7c-0.1,1.2-0.3,2.4-1.4,3.1c-1-0.3-0.7-0.9-0.7-1.5
			c0.3-2.7,0.5-5.4,0.7-8.2c-2.5-1.5-4.9,0-7.6-0.6c-0.3,2.6-0.5,5-0.7,7.3c-0.1,1.3-0.3,2.4-1.7,3.2c-0.7-1.7,0-3.4,0-5
			c-0.1-1.6,0.2-3.3,0.3-4.8c-1.1-1.1-3-0.1-3.8-2c0.9-0.1,1.6-0.2,2.3-0.2c1.7-0.1,1.8-0.1,2.1-1.8c0.3-1.7,0.6-3.5,0.9-5.2
			c0.1-0.4,0.3-0.8,0.7-1.7c0.3,0.9,0.6,1.4,0.6,1.8c-0.1,1.7-0.3,3.3-0.4,5c-0.1,1.7,0.2,2.1,1.9,2.1c1.5,0,3.1-0.2,4.6-0.3
			c1-0.1,1.2-0.8,1.3-1.6c0.3-1.8,0.6-3.6,0.9-5.4c0.1-0.4,0.3-0.7,0.7-1.6c1.2,3-0.3,5.7,0.4,8.5c0.9,0.1,1.9,0.6,2.8,0.4
			c0.8-0.2,1.5-1,2.4-1.7c0.1,0.5,0.3,0.9,0.3,1.2c-0.3,3-0.6,5.9-0.9,8.9c-0.1,1.5,0.5,2.2,2.1,2.3c1,0.1,2,0,3-0.1
			c0.9-0.1,1.8-0.3,2.7-0.5C2785.2,1301.5,2785.2,1301.6,2785.3,1301.8"/>
		<path class="st3" d="M2656.7,941.5c0.3-0.4,0.4-0.7,0.7-0.9c3.1-1.9,4.7-5,6.3-8.1c0.5-0.9,0.9-1.8,1.2-2.7
			c0.3-0.9,0.4-1.8,0.5-2.6c0.1-1.1-0.3-1.9-1.5-2.3c-1.1-0.4-2.1,0-2.6,0.9c-0.7,1.1-1.2,2.3-1.5,3.5c-0.2,1.1,0,2.1,1,2.6
			c0.7,0.3,1.8,0.4,1.6,1.3c-2.3,1.1-4.8,0.5-6.1-1.4c-1.1-1.6-0.8-4.4,0.8-6.2c2.3-2.6,7-3.3,10-1.6c1.6,0.9,2.4,2.3,2.5,4.1
			c0.2,2.7-0.9,5-2.4,7c-2.4,3.1-5.6,5.2-9.3,6.6c-0.2,0.1-0.5,0-0.7,0C2657.1,941.8,2657.1,941.7,2656.7,941.5"/>
		<path class="st3" d="M2671.9,941.3c1.2-2.2,2.5-4.4,3.6-6.5c1.2-2.2,2.4-4.4,3.8-7h-6.6c-0.3-0.4-0.4-0.5-0.4-0.7c0-4,0-4,4-4
			c2.3,0,4.6,0,7,0c0.3,1.8-0.1,3.2-0.8,4.6c-2,4-4,8.1-6.1,12.1C2675.3,942,2674.6,942.3,2671.9,941.3"/>
		<path class="st3" d="M2688.8,927.6c0.5,0.2,1,0.3,1.5,0.5c3.1,1,4.6,4.3,3.2,7.2c-0.4,0.9-1,1.7-1.7,2.4c-2.1,1.9-4.7,3-7.2,4
			c-0.2,0.1-0.4,0-1.1-0.1c0.8-0.6,1.2-0.9,1.6-1.2c1.2-0.9,2.5-1.7,3.7-2.8c0.6-0.5,1-1.4,1.2-2.2c0.6-2.2-0.6-3.8-2.9-4.1
			c-0.6-0.1-1.2,0-2.2,0c0.6-1.5,1.1-2.8,1.6-4.1c0.5-1.3,0.9-2.6,1.4-4.1h8.7c-0.3,1.7-1.3,3.1-2.6,4.3c-0.3,0.2-1,0-1.5,0
			C2691.2,927.2,2688.9,925.9,2688.8,927.6"/>
		<path class="st3" d="M2651.8,941.4h-4.8c0-0.6,0-1,0-1.3c0.1-3.2,0-6.5,0-9.7c0-0.7,0-1.3,0-2.1c-0.7,0.1-2.3-0.1-2.7-0.3
			c0.2-0.4,4.7-3.3,5.8-4.8c0,0,0.8,0,1.1,0l0.5,0C2651.8,928.1,2651.7,940.6,2651.8,941.4"/>
		<path class="st3" d="M2703.4,1293.4c0.7-0.7,1.3-1.2,1.9-1.8c2.7-2.6,5.8-4.5,9.8-4.6c1.7,0,3.5,0.3,5.2,0.7
			c0.6,0.1,1.3,0.8,1.4,1.3c0.2,0.6-0.2,1.4-0.3,2.1c-0.6-0.1-1.2-0.1-1.7-0.3c-5.9-3.7-11.9-1.6-14.8,3.7c-1.2,2.2-2,4.8-2.9,7.2
			c-0.4,0.9-0.7,1.9-1.1,2.7c-0.1,0.3-0.7,0.5-0.9,0.4c-0.4-0.1-0.8-0.6-0.9-0.9c-0.1-0.6,0-1.2,0.2-1.8c1-3.2,1-6.5,1-9.7
			c0-0.8,0-1.7,0.1-2.5c0.1-0.7,0.6-1.3,0.9-1.9C2703.9,1289.1,2702.2,1291.6,2703.4,1293.4"/>
		<path class="st3" d="M2745.5,1290.8c2.5,1.6,5.3,1.9,7.2,0.5c0.5-0.3,1.2-1.1,1.1-1.6c-0.2-0.6-0.9-1.3-1.5-1.5
			C2749.8,1287.3,2747.1,1288.4,2745.5,1290.8 M2744.4,1292.4c-1.5,1.4-2.1,3.2-2,5.2c0.1,2.1,1.2,3.3,3.3,3.4
			c2.4,0.1,4.8,0.4,7-0.7c0.2-0.1,0.4,0,0.7,0c0.5,0.8,0.1,1.3-0.5,1.5c-3.3,1.1-6.6,1.6-9.9,0.3c-1.6-0.6-2.3-1.9-2.3-3.6
			c0.2-5,2.5-8.8,6.8-11.3c1.6-1,3.5-1,5.4-0.5c1.2,0.4,2.3,0.9,2.6,2.3c0.3,1.6-0.2,3.1-1.5,3.8c-1.4,0.8-3,1.6-4.8,1
			C2747.6,1293.3,2746,1292.9,2744.4,1292.4"/>
		<path class="st3" d="M2722.5,1303.4c0-0.8-0.2-1.7,0-2.4c0.9-2.8,0.8-5.6,0.8-8.4c0-1-0.2-2.2,1-2.8c1.9,0.8,0.4,2.7,1.5,4
			c0.6-0.4,1.2-0.7,1.6-1.2c2.2-2.3,4.9-3.5,7.9-3.8c1.5-0.1,3.1,0.5,4.7,0.9c0.3,0.1,0.6,0.5,0.7,0.8c0.1,0.5,0.1,1.1-0.2,1.4
			c-0.2,0.2-0.9,0.2-1.4,0c-1.4-0.4-2.7-1.2-4.1-1.4c-2.8-0.3-5.3,0.7-6.9,3c-1.3,1.8-2.1,3.9-3.1,5.9c-0.5,1-0.6,2-1,3
			c-0.2,0.5-0.7,0.8-1,1.2C2722.9,1303.6,2722.7,1303.5,2722.5,1303.4"/>
		<path class="st3" d="M2645.2,1317c0,1.4-0.5,2.6-1.7,3.3c-1.1,0.6-2.4,1.1-3.6,1.3c-1.8,0.2-3-1.6-2.1-3.2c1-1.8,2.6-3,4.6-3.5
			C2644.1,1314.4,2645.2,1315.3,2645.2,1317"/>
		<path class="st4" d="M2668.8,826c-1.5,1.1-2.7,0.8-3.8,0.7c-0.2,0-0.4-0.5-0.4-0.7c0-0.2,0.3-0.6,0.5-0.6
			C2666.2,825.2,2667.2,825.3,2668.8,826"/>
		<path class="st4" d="M2686.4,1290.7c-2.1-0.3-4.1-0.5-6-0.9c-0.8-0.1-1.9-0.4-1.8-1.4c0.1-0.8,0.7-1.8,1.3-2.2
			c1.2-0.7,2.7-1.2,4.1-1.4c2.2-0.3,4.4-0.3,6.6-0.3c0.9,0,1.8,0.4,2.6,0.7c1,0.4,1.7,1.2,1.6,2.3c-0.1,1.1-0.9,1.8-2,2
			C2690.7,1290,2688.5,1290.3,2686.4,1290.7"/>
		<path class="st4" d="M2745.5,1290.8c1.6-2.4,4.3-3.5,6.8-2.5c0.6,0.2,1.3,0.9,1.5,1.5c0.1,0.4-0.6,1.2-1.1,1.6
			C2750.8,1292.7,2748,1292.4,2745.5,1290.8"/>
		<path class="st3" d="M2699.5,1090.3c-1.7-1.7-3.3-3.4-5.2-5.4c2.9-1.1,5.6-2.2,8.8-3.5c-1,3.2-2,6-2.9,8.8
			C2700,1090.3,2699.7,1090.3,2699.5,1090.3"/>
	</g>
	<polygon class="st1" points="2676.1,1051 2660.4,1067.3 2657.2,1064.2 2672.9,1048 	"/>
	<polygon class="st1" points="2684.6,1062.6 2677.1,1055.4 2678.8,1053.7 2697.2,1071 2695.5,1072.8 2687.9,1065.6 2674,1080.1 
		2670.7,1077 	"/>
	<g>
		<defs>
			<rect id="SVGID_3_" x="1381.1" y="78.6" width="2580.2" height="1807.9"/>
		</defs>
		<clipPath id="SVGID_4_">
			<use xlink:href="#SVGID_3_"  style="overflow:visible;"/>
		</clipPath>
		<path class="st5" d="M2700.2,1092l2.1-7c0.5-1.6,1-2.9,1.6-4.2l-0.1-0.1c-1.3,0.6-2.6,1.2-4.1,1.7l-7,2.4L2700.2,1092z
			 M2690.5,1086l-7.5,2.7l-3.3-3.1l24.1-8.2l3.9,3.7l-7.2,24.2l-3.4-3.2l2.3-7.6L2690.5,1086z"/>
	</g>
	<polygon class="st1" points="2719.7,1092.4 2722.9,1095.4 2709,1109.9 2719.5,1119.9 2717.9,1121.7 2704.1,1108.6 	"/>
	<g>
		<defs>
			<rect id="SVGID_5_" x="1381.1" y="78.6" width="2580.2" height="1807.9"/>
		</defs>
		<clipPath id="SVGID_6_">
			<use xlink:href="#SVGID_5_"  style="overflow:visible;"/>
		</clipPath>
		<path class="st6" d="M2723.8,1127.3l6.6-6.9l1.2-16.8l3.6,3.5l-0.8,7.8c-0.2,2.1-0.4,3.8-0.8,5.7l0.1,0.1c1.7-0.4,3.6-0.7,5.7-1
			l7.9-1.1l3.6,3.5l-17.3,1.4l-6.7,6.9L2723.8,1127.3z"/>
		<path class="st7" d="M2484.4,1108.3c-1.6,1.7-2.3,3-2.9,5.5c-0.8,3.6,0.7,6.7,4,8.4c3.9,1.9,8.1,0.9,10.1-2.5
			c0.7-1.1,1-2.4,1.5-3.6c0.3-0.8,0-1.5-0.9-1.9C2492.2,1112.2,2488.3,1110.3,2484.4,1108.3 M2500.4,1101.8c0.4-0.1,1.1-0.2,1.7-0.4
			c2.6-0.8,4.3-2.6,5.2-5.1c1-2.9,1.1-2.9-1.7-4.2c-2.9-1.4-5.8-2.8-8.7-4.2c-2.2-1.1-2.2-1.1-3.4,1.2c-0.1,0.2-0.3,0.4-0.3,0.6
			c-0.5,1.8-1.5,3.5-1.2,5.5C2492.7,1099.1,2496.5,1101.5,2500.4,1101.8 M2489.8,1092.6c-5,0.1-9.6,0.1-14.2,0.2
			c-0.8,0-1.6,0.4-2.5,0.6c-1.7,0.4-2.9,1.4-3,3.1c-0.1,1.6,1.2,2.4,2.5,3c2.2,1.1,4.4,2.2,6.6,3.3c5.5,2.7,10.9,5.4,16.4,8
			c0.5,0.2,1,0.5,1.5,0.6c1.4,0.5,2.7,0.4,3.7-1c0.2-0.4,0.4-0.8,0.7-1.2c0.2,0.1,0.5,0.3,0.7,0.4c0,0.5,0.1,1.1-0.1,1.6
			c-1.7,3.5-3.5,7-5.4,10.4c-3,5.5-9.1,6.1-13.7,3c-2.7-1.8-3.7-4.6-3.9-7.7c-0.1-0.8-0.1-1.6-0.1-2.6c-2.8-0.1-5.4-0.1-8-0.1
			c-1.7,0-3.4,0.1-5.1,0.1c-2.7,0-5,0.8-6.7,3c-1.5,1.8-1.5,3.4,0.4,4.7c1.8,1.3,3.8,2.3,5.8,3.3c5.6,2.8,11.2,5.5,16.8,8.2
			c0.6,0.3,1.1,0.5,1.7,0.8c3.3,1.3,3.3,1.3,5.7-1.3c0.1-0.1,0.3-0.1,0.5-0.2c0.9,0.6,0.3,1.3,0,1.9c-1.4,2.9-2.8,5.8-4.2,8.6
			c-1.3,2.6-2.5,5.2-3.7,7.9c-0.4,0.9-0.9,1.4-1.9,1c-1.6-0.7-3.3-1.4-4.9-2.2c-0.3-0.1-0.4-0.6-0.9-1.4c1,0.2,1.6,0.3,2.2,0.5
			c2.3,0.6,3.8,0.2,5-1.8c1.4-2.3,2.7-4.8,3.8-7.3c0.6-1.2,0.2-2-1.3-2.7c-2.4-1.3-4.8-2.4-7.2-3.6c-1-0.5-2.1-1-3.4-1.6
			c-1.4,2.8-2.7,5.4-3.9,8.1c-0.5,1.3,0.2,2.4,1.2,3.2c0.6,0.5,1.1,0.9,1.9,1.6c-2,0.6-2.9-0.8-4.2-1.3c-1.4-0.5-2.7-1.2-4-1.9
			c-1.3-0.6-2.7-1-3.7-2c0.1-0.2,0.1-0.3,0.2-0.5c0.6,0.1,1.2,0.2,1.8,0.4c2.9,1,4.1,0.6,5.5-2c0.5-0.9,1.1-1.9,1.5-2.8
			c0.5-1.1,1-2.2,1.6-3.5c-0.6-0.4-1.1-0.9-1.6-1.2c-3.4-1.7-6.9-3.5-10.3-5.1c-2-0.9-2.7-0.7-3.7,1.2c-1,2-2.1,3.9-3,5.9
			c-1.2,2.6-0.8,5.1,1.2,7.2c0.6,0.7,1.6,1.2,1.6,2.4c-0.4,0-0.6,0.1-0.8,0c-1.8-1.5-3.6-3.1-5.4-4.6c-0.8-0.7-0.8-1.3-0.4-2.2
			c2.5-5.1,5-10.3,7.5-15.5c0.5-0.9,1.2-1.8,1.7-2.7c0.9-1.5,1.7-3.1,2.5-4.6c0.5-1,1.1-1.3,2.2-1.3c4.9,0.1,9.9-0.1,14.8,0.1
			c2,0.1,3.3-0.3,3.9-2.2c0.1-0.3,0.3-0.7,0.6-1.1c-0.5-0.4-1-0.8-1.5-1.1c-3-1.5-5.9-3-8.9-4.4c-2.6-1.2-3.1-1.1-5.1,1.2
			c-0.4,0.5-0.4,0.5-1.6,0.2c1.4-2.7,2.7-5.5,4.1-8.2c0.7-1.4,1.4-2.7,2-4.1c0.6-1.3,1.5-1.9,3.1-1.8c3.2,0.2,6.5,0.2,9.7,0.2
			c2.1,0,4.2-0.1,6.2-0.3c0.5,0,1.2-0.5,1.5-0.9c0.5-0.7,0.7-1.6,1.2-2.6c-2.9-1.5-5.7-2.9-8.4-4.2c-0.6-0.3-1.2-0.6-1.9-0.9
			c-2.2-1.1-3.3-0.8-5.1,1c-0.4,0.4-0.4,0.4-1.6,0.3c1.5-3,3-6,4.5-9c0.1-0.2,0.5-0.1,1-0.2c0,0.4,0.2,0.7,0.1,1
			c-0.5,2.1-0.3,2.9,1.6,4c2.3,1.3,4.8,2.5,7.2,3.7c5.3,2.6,10.6,5.2,16,7.8c0.5,0.2,1,0.4,1.5,0.6c1.5,0.8,2.8,0.7,3.9-0.7
			c0.3-0.3,0.7-0.6,1.3-1.2c0.1,0.8,0.3,1.3,0.1,1.6c-1.8,3.5-3.6,7.1-5.5,10.6c-1.4,2.6-3.6,4.3-6.7,4.8c-3.5,0.6-8.2-1.7-9.7-4.9
			c-0.7-1.5-1.2-2.9-1.1-4.6C2490,1094.5,2489.8,1093.7,2489.8,1092.6"/>
		<path class="st7" d="M2601.6,882c0.2,0.5,0.5,0.8,0.4,1c-1.9,3.9-3.9,7.8-5.8,11.7c-0.1,0.2-0.6,0.1-1,0.2c0-0.6-0.1-1.2,0.1-1.6
			c0.5-1.5,0-2.6-1.2-3.4c-1.1-0.8-2.3-1.5-3.5-2.2c-2.9-1.5-5.7-3-8.7-4.4c-1-0.5-1.4-1.1-1.5-2.1c-1.4-8.9,2.9-19.6,13.6-22.4
			c1.8-0.5,3.8-0.6,5.7-0.6c11.2,0.1,21.5,7.4,25,17c2,5.7,1.4,11-2,15.9c-1.2,1.7-2.5,3.3-3.8,4.9c-1.1,1.2-2.2,2.4-1.5,4.2
			c0,0.1-0.2,0.4-0.4,0.7c-4-1.8-7.9-3.6-11.9-5.5c0.2-1.3,0.9-1.4,1.8-1.1c1.8,0.5,3.6,0.6,5.5,0.4c6.8-0.9,11.5-6.6,10.4-14.5
			c-0.3-2.3-1.3-4.3-2.7-6c-5.2-6.4-11.8-10.8-20.1-11.5c-6.3-0.6-11.9,1.5-15.5,7.2c-1.4,2.2-1.9,4.6-1.5,7.2
			c0.2,1.1,0.6,1.8,1.6,2.3c3.6,1.7,7.2,3.5,10.8,5.2c2.5,1.1,3.4,0.7,5.1-1.5C2600.7,882.8,2601.1,882.5,2601.6,882"/>
		<path class="st7" d="M2503.4,1025.4c1.3,0.4,1.3,1.1,0.9,1.8c-1,1.6-0.3,2.9,0.9,3.8c2,1.4,4.2,2.6,6.3,3.7
			c5.4,2.7,10.9,5.3,16.4,8c2.6,1.3,5.2,2.6,7.9,3.8c0.8,0.4,1.7,0.7,2.6,0.9c1.2,0.3,2.3-0.1,3.1-1.1c0.2-0.3,0.4-0.7,0.7-0.9
			c0.3-0.2,0.8-0.3,1.2-0.4c0,0.4,0.3,0.9,0.1,1.2c-1.1,2.3-2.3,4.5-3.4,6.7c-2.3,4.6-4.6,9.3-6.9,14c-0.3,0.5-0.5,1.2-0.9,1.6
			c-0.3,0.3-1,0.5-1.4,0.4c-2.7-1.1-5.3-2.4-8-3.6c-0.3-0.1-0.5-0.5-0.9-1c0.6-0.1,1.1-0.3,1.4-0.2c0.8,0.2,1.6,0.6,2.4,0.8
			c3,0.7,5.5-0.2,7-2.8c1.6-2.7,2.9-5.6,4.2-8.4c0.6-1.4,0.2-2.2-1.3-2.9c-4.4-2.2-8.8-4.4-13.5-6.7c-0.5,0.7-0.9,1.4-1.3,2.1
			c-0.9,1.8-1.8,3.7-2.8,5.5c-1.3,2.6-0.9,4.6,1.5,6.4c0.4,0.3,0.8,0.8,1.1,1.3c-1.9,0.1-3.3-1.1-4.8-1.8c-1.6-0.7-3.2-1.5-4.8-2.4
			c-1.4-0.8-3.4-1-4.3-2.5c0.1-0.2,0.1-0.3,0.2-0.5c0.5,0.1,0.9,0.1,1.3,0.3c3.7,1.7,5.8,1.1,7.8-2.6c1.2-2.2,2.2-4.5,3.4-6.9
			c-0.7-0.5-1.2-0.9-1.8-1.2c-4.1-2-8.3-4.1-12.4-6.1c-0.6-0.3-1.3-0.5-1.9-0.7c-1.5-0.4-2.7-0.1-3.6,1.2c-0.1,0.2-0.2,0.5-0.4,0.6
			c-0.4,0.3-0.9,0.4-1.3,0.7c0-0.5-0.2-1,0-1.4c1.1-2.3,2.3-4.6,3.5-7C2502.2,1027.9,2502.8,1026.6,2503.4,1025.4"/>
		<path class="st7" d="M2584.5,928.2c1.6-0.3,3.5-0.5,5.2-1c4.6-1.3,7.2-5.8,6.2-10.4c-0.6-3-2.2-5.5-4.5-7.5
			c-4.3-3.7-9.2-6.1-14.9-6.7c-2.8-0.3-5.6,0.1-8,1.6c-4.2,2.5-6.1,7.7-3,13C2569.6,924.4,2576.4,927.1,2584.5,928.2 M2577.5,899.1
			c8.2-0.3,16.9,5.3,19.7,12.6c4.2,10.7-4.2,20.2-14.2,20.1c-7.6-0.1-13.5-3.2-18-9.1c-2.8-3.7-3.8-7.9-2.9-12.4
			c0.9-4.7,4-8.1,8.4-10C2572.8,899.4,2575.3,898.6,2577.5,899.1"/>
		<path class="st7" d="M2540.4,1016.4c1.4-0.2,3.1-0.3,4.7-0.8c3.2-1,5.7-2.8,6.5-6.2c0.9-3.7-0.1-7-2.6-9.8
			c-4.6-5.4-10.6-8.3-17.7-8.7c-3.5-0.2-6.7,0.6-9.2,3.3c-3,3.3-3.2,8.2-0.3,12.3C2526.2,1012.7,2532.7,1015.4,2540.4,1016.4
			 M2533.9,987.4c7.6,0.2,13.7,3.3,17.8,9.7c6,9.4,0.9,19.9-8.7,22.3c-10.1,2.5-22.4-4.1-24.9-14.6c-1.7-7.3,1.8-14,9.2-16.6
			C2529.4,987.5,2531.6,987.2,2533.9,987.4"/>
		<path class="st7" d="M2453.8,1203.4c-2-1.9-4.9-1.8-6.7-3.8c0.9-0.7,1.6-0.2,2.3,0c3.2,1,5.1,0.3,6.7-2.7c0.6-1.2,1.1-2.4,1.7-3.8
			c-3.8-1.9-7.3-3.7-10.8-5.4c-3.7-1.8-7.5-3.7-11.2-5.5c-1.3-0.6-2.6-1.3-4-1.8c-2.1-0.9-3-0.7-4.5,1c-0.3,0.4-0.8,0.7-1.2,1
			c-0.1,0-0.3-0.1-0.7-0.2c1.8-3.6,3.6-7.2,5.4-10.8c0.2,0,0.4,0.1,0.6,0.1c0,0.5,0.1,1.1,0,1.6c-0.8,2.4,0.1,3.8,2.3,4.9
			c4.5,2.3,9.1,4.5,13.6,6.8c3.3,1.6,6.6,3.2,9.9,4.9c1.6,0.8,1.8,0.8,2.7-0.8c0.5-0.9,1-1.7,1.4-2.6c1-2.4,0.7-3.9-1.3-5.8
			c-0.6-0.6-1.3-1.1-1.9-1.6c-0.2-0.2-0.2-0.5-0.5-1.3c3.1,1.3,5.4,2.9,8.1,4.2c-5.5,10.9-10.8,21.7-16.2,32.4
			c-0.1,0.1-0.4,0.1-0.9,0.3c0.1-0.7,0-1.3,0.2-1.8c0.5-1.5,0-2.6-1.2-3.4c-0.7-0.5-1.4-1-2.1-1.4c-6.8-3.3-13.5-6.6-20.3-10
			c-0.5-0.2-1-0.5-1.5-0.7c-2.4-1.1-3.4-0.9-5.2,1.2c-0.2,0.3-0.5,0.5-1,0.8c-0.2-0.5-0.4-0.8-0.3-1c1.7-3.4,3.4-6.7,5.1-10.1
			c0.2,0,0.4,0.1,0.6,0.1c0.1,0.4,0.2,0.9,0.1,1.3c-0.8,2.9-0.4,4.1,2.1,5.4c4.7,2.4,9.4,4.6,14.1,6.9c2.4,1.2,4.8,2.4,7.3,3.5
			c0.6,0.3,1.3,0.6,1.9,0.8c1.8,0.7,3.2,0.1,4.3-1.3C2453.1,1204.5,2453.4,1204,2453.8,1203.4"/>
		<path class="st7" d="M2553,970.7c-1.5,3-2.9,6.1-4.4,9.1c-0.1,0.2-0.6,0.3-1,0.4c-0.2-0.3-0.4-0.6-0.3-0.7
			c0.7-2.3-0.6-3.4-2.4-4.3c-2.2-1.1-4.4-2.3-6.6-3.2c-2.1-0.9-3-2.2-3.2-4.5c-0.5-5.4,2.8-11.9,7.6-14.5c3.6-1.9,7.4-2.1,11.3-1.4
			c5.9,1.1,11,3.9,14.6,8.9c4.6,6.4,4.7,13-0.8,19.5c0,0.1-0.1,0.1-0.1,0.2c-1.2,1.4-2.9,2.6-2.4,4.8c-2.4-0.5-8.8-3.6-9.6-4.7
			c0.4-0.8,1-0.4,1.6-0.3c1.8,0.1,3.7,0.3,5.4-0.1c6.4-1.4,9.2-8.9,5.5-14.4c-4.3-6.4-10.4-10.3-18.2-10.6
			c-4.7-0.2-8.8,1.5-11.4,5.7c-1.2,1.9-1.1,4-0.8,6c0.1,0.5,0.8,1.2,1.3,1.5c2.8,1.5,5.6,2.9,8.5,4.2c1.6,0.7,2.5,0.4,3.9-1
			c0.3-0.4,0.8-0.6,1.2-0.9C2552.6,970.4,2552.8,970.6,2553,970.7"/>
		<path class="st7" d="M2570.5,936.1c-1.5,1.6-2.2,3.3-2.7,5.1c-1,3.3,0,5.9,2.6,7.9c3.2,2.4,7.6,2.8,10.5-0.7
			c1.1-1.4,1.7-3.2,2.4-4.9c0.3-0.8-0.3-1.3-1-1.6C2578.5,940.1,2574.6,938.1,2570.5,936.1 M2544.2,944.9c0.9-1.7,1.7-3.4,2.5-5
			c0.4-0.8,0.9-1.2,1.8-1.2c0.8,0,1.5-0.2,2.3-0.2c4.4,0,8.8-0.2,13.2,0c2.1,0.1,3.2-0.6,3.8-2.4c0.1-0.2,0.2-0.4,0.2-0.6
			c0-0.1,0-0.1,0-0.4c-0.3-0.2-0.7-0.5-1.2-0.8c-3-1.5-5.9-2.9-8.9-4.4c-2.3-1.1-3.3-0.9-5.2,1.1c-0.3,0.3-0.8,0.4-1.4,0.3
			c1.7-3.2,2.7-6.7,4.8-9.6c0.2,0,0.4,0.1,0.6,0.1c0,0.5,0.1,1,0,1.4c-0.7,1.4,0,2.4,1.1,3.2c0.5,0.4,1.1,0.8,1.7,1.1
			c7.5,3.7,15,7.4,22.6,11.1c3,1.5,3.1,1.4,5.5-1c0.1-0.1,0.4-0.2,0.9-0.3c0,0.6,0,1.2-0.2,1.6c-1.7,3.4-3.5,6.8-5.2,10.2
			c-2.6,5.1-7.9,6.3-12.8,3.9c-3.4-1.7-4.7-4.7-4.9-8.2c-0.1-2.7,0-2.8-2.7-2.8c-3.4,0-6.8-0.1-10.2,0c-2.6,0-5.1,0.5-6.8,2.8
			c-0.2,0.2-0.5,0.3-0.8,0.5C2544.8,945.2,2544.6,945.1,2544.2,944.9"/>
		<path class="st7" d="M2504.2,1080.5c-3.7-1.9-7.2-3.7-10.7-5.5c-0.1-0.1-0.1-0.4-0.1-0.8c0.8,0.3,1.5,0.5,2.2,0.7
			c2.4,0.6,3.8,0.1,5-2.1c1.1-2.1,2.1-4.3,3.3-6.6c-1.7-0.9-3.2-1.7-4.7-2.5c-2.5-1.3-5.1-2.5-7.7-3.7c-1.9-0.9-2.4-0.8-3.3,1
			c-1.3,2.3-2.5,4.6-3.5,7c-0.9,2.2-0.3,4.2,1.2,6c0.7,0.8,1.4,1.6,2.2,2.6c-0.4,0.1-1,0.3-1.2,0.2c-2.1-1.8-4.1-3.6-6.2-5.4
			c3.2-6.5,6.3-12.9,9.3-19.2c0.2,0,0.4,0.1,0.6,0.1c0,0.5,0.1,1.1,0,1.6c-0.4,1.6,0.3,2.7,1.5,3.5c0.9,0.6,1.8,1.2,2.8,1.6
			c7.1,3.5,14.2,7,21.3,10.5c0.3,0.2,0.7,0.3,1.1,0.4c2.1,0.7,2.6,0.6,3.9-1.1c0.4-0.5,0.6-1.1,1.7-0.6c-1.4,3.3-3.1,6.5-4.6,9.8
			c-1.5,3.2-3.1,6.4-4.7,9.8c-2.5-1.3-5.1-1.8-7.2-3.3c0.1-0.2,0.2-0.5,0.3-0.7c0.7,0.2,1.4,0.3,2,0.5c2.3,0.7,4,0.2,5.2-1.8
			c1.4-2.4,2.6-4.9,3.7-7.3c0.6-1.3,0.3-1.9-0.9-2.6c-3.1-1.6-6.3-3.2-9.5-4.8c-0.9-0.4-1.6-0.3-2,0.5c-1.2,2.2-2.3,4.5-3.3,6.8
			c-0.6,1.4,0,2.7,1.2,3.6c0.5,0.4,0.9,0.8,1.3,1.2C2504.5,1079.8,2504.4,1080,2504.2,1080.5"/>
		<path class="st7" d="M2459.5,1174.5c0.9,0.2,1.7,0.4,2.6,0.6c2.8,0.8,4.7,0,6.1-2.6c0.6-1.2,1.2-2.4,1.9-3.8
			c-0.5-0.3-0.9-0.7-1.4-0.9c-7.8-3.9-15.6-7.7-23.4-11.5c-0.5-0.2-1-0.4-1.5-0.6c-2-0.7-2.8-0.5-4.2,1.2c-0.4,0.5-0.7,1.2-1.8,0.6
			c1.7-3.5,3.5-7,5.2-10.5c1,0.2,1,0.8,0.8,1.4c-0.7,2.7-0.3,3.7,2,5.1c1.4,0.8,2.9,1.5,4.3,2.2c6.3,3.1,12.7,6.3,19,9.4
			c0.7,0.3,1.4,0.5,2.3,0.8c0.9-1.7,1.8-3.2,2.4-4.8c0.6-1.4,0.5-2.9-0.7-4.1c-0.7-0.8-1.6-1.4-2.3-2.2c-0.3-0.3-0.5-0.8-0.7-1.2
			c0.1-0.1,0.2-0.3,0.4-0.4c2.4,1.3,4.9,2.6,7.5,4.1c-1,2.1-2,4-3,6c-2.3,4.6-4.7,9.3-7,13.9c-0.9,1.7-1.1,1.8-2.8,1
			c-1.5-0.7-3-1.3-4.4-1.9c-0.6-0.3-1.1-0.7-1.7-1C2459.4,1175,2459.5,1174.7,2459.5,1174.5"/>
		<path class="st7" d="M2424.6,1216.2c-5.9,0.1-11.5,4.2-11.5,11c0,6.2,4.2,11.3,11.2,11.2c6.7,0,11.2-4.4,11.3-10.9
			C2435.7,1220.8,2431,1216.5,2424.6,1216.2 M2425.1,1214.3c7.3,0.6,12.7,6,12.4,13.4c-0.3,8.4-6.9,13.2-14.1,12.6
			c-8-0.6-12.6-7.1-12.2-13.6C2411.6,1219.6,2417.5,1213.9,2425.1,1214.3"/>
		<path class="st7" d="M2602.4,909.3c0-0.4,0-0.9,0.1-1.3c0.6-2.2,0.2-3.3-1.7-4.4c-1.1-0.6-2.2-1.2-3.3-1.7
			c-6.7-3.3-13.4-6.6-20.1-9.9c-0.7-0.3-1.4-0.7-2.1-0.8c-1.3-0.3-2.4,0.1-3.2,1.2c-0.4,0.5-0.6,1.3-1.7,1c-0.3-1.5,1.1-2.4,1.5-3.6
			c0.5-1.2,1.1-2.3,1.7-3.5c0.6-1.2,1.2-2.4,1.8-3.6c0.2,0,0.3,0.1,0.5,0.1c0.1,0.4,0.4,0.8,0.3,1.1c-0.7,3.2-0.4,4.1,2.6,5.6
			c3.4,1.8,6.9,3.4,10.3,5.1c3.8,1.9,7.6,3.7,11.4,5.6c0.6,0.3,1.3,0.5,1.9,0.8c1.6,0.7,2.8,0.1,3.9-1c0.5-0.5,1-1.1,1.6-1.9
			c0.2,0.6,0.5,0.9,0.4,1.1c-1.9,3.3-3.1,7-5.3,10.2C2602.8,909.5,2602.6,909.4,2602.4,909.3"/>
		<path class="st7" d="M2532.7,970c-0.2,0.8-0.2,1.3-0.4,1.7c-0.7,1.8-0.5,2.9,1,4c0.9,0.7,1.9,1.3,3,1.8c6.7,3.3,13.5,6.6,20.2,10
			c0.3,0.1,0.6,0.3,0.8,0.4c3.2,1.3,3.6,1.2,5.9-1.3c0.2-0.2,0.5-0.4,1.1-0.9c0,0.8,0.2,1.3,0,1.6c-1.3,2.8-2.8,5.6-4.1,8.4
			c-0.4,0.8-0.8,1.1-1.6,0.4c0-0.1-0.1-0.2,0-0.2c0.9-2.9,0.4-4.1-2.5-5.6c-6.3-3.1-12.5-6.2-18.8-9.3c-1.6-0.8-3.2-1.6-4.8-2.3
			c-2.2-0.9-2.9-0.6-4.4,1.1c-0.4,0.4-0.7,1.1-1.7,0.4c1.6-3.3,3.3-6.6,4.9-9.8C2531.5,970.3,2532,970.3,2532.7,970"/>
		<path class="st7" d="M2426,1226.1l-0.6,1.2c-0.7,1.5-0.4,2.7,0.7,3.3c1.2,0.6,2.3,0.1,2.9-1.3c0.4-0.7,0.5-1.2,0.6-1.4
			L2426,1226.1z M2433.2,1226c-0.3,1-0.9,2.5-1.7,4.1c-1,2-2,3.2-3.2,3.8c-1,0.5-2.2,0.5-3.4-0.1c-1.7-0.8-2.3-2.6-2.1-3.9l-0.1,0
			c-0.8,0.7-2,0.8-3.4,0.6c-1.7-0.3-3.7-0.8-4.3-0.8l1.5-3.1c0.5,0,1.7,0.2,3.6,0.6c1.9,0.4,2.6,0.1,3.2-1.1l0.4-0.9l-5.2-2.6l1.5-3
			L2433.2,1226z"/>
		<path class="st7" d="M2853.6,1106.3c0.4,2.3,1,3.6,2.7,5.6c2.4,2.8,5.8,3.6,9.1,1.9c3.9-1.9,5.6-5.9,4.1-9.5
			c-0.5-1.2-1.3-2.3-2-3.3c-0.5-0.7-1.2-0.9-2-0.5C2861.6,1102.4,2857.6,1104.4,2853.6,1106.3 M2858.1,1089.7
			c0.2-0.4,0.5-0.9,0.8-1.6c0.9-2.6,0.5-4.9-1-7.2c-1.7-2.6-1.7-2.6-4.4-1.2c-2.9,1.4-5.8,2.9-8.7,4.3c-2.2,1.1-2.2,1.1-1.1,3.4
			c0.1,0.2,0.1,0.5,0.3,0.6c1.1,1.5,1.8,3.3,3.7,4.3C2851.3,1094.1,2855.5,1092.6,2858.1,1089.7 M2844.3,1092.5
			c-3,4-5.8,7.6-8.5,11.3c-0.5,0.7-0.7,1.5-1,2.3c-0.7,1.6-0.6,3.1,0.6,4.2c1.2,1,2.6,0.5,3.9-0.1c2.2-1.1,4.4-2.1,6.6-3.2
			c5.5-2.7,10.9-5.4,16.4-8c0.5-0.2,1-0.5,1.4-0.8c1.3-0.8,2-1.9,1.4-3.5c-0.2-0.4-0.4-0.8-0.6-1.2c0.3-0.1,0.5-0.2,0.8-0.3
			c0.4,0.3,1,0.6,1.2,1c1.7,3.5,3.5,7,5.1,10.5c2.6,5.7-0.6,10.9-5.9,12.6c-3.1,1-5.9,0.1-8.5-1.6c-0.7-0.4-1.3-0.9-2.2-1.5
			c-1.8,2.2-3.4,4.2-5,6.2c-1,1.3-2,2.7-3,4.1c-1.6,2.1-2.3,4.4-1.7,7.1c0.5,2.2,1.8,3.3,4,2.6c2.1-0.7,4.2-1.6,6.2-2.6
			c5.6-2.7,11.2-5.5,16.8-8.2c0.6-0.3,1.1-0.6,1.6-0.9c3-1.8,3-1.8,2.4-5.2c0-0.1,0-0.3,0.1-0.5c1-0.4,1.2,0.5,1.6,1.1
			c1.5,2.9,2.9,5.7,4.4,8.6c1.3,2.6,2.7,5.2,4.1,7.7c0.5,0.9,0.6,1.6-0.4,2.1c-1.6,0.9-3.1,1.7-4.7,2.5c-0.3,0.2-0.8,0-1.6-0.1
			c0.8-0.7,1.2-1.1,1.7-1.4c1.9-1.5,2.5-2.9,1.6-5c-1-2.6-2.3-5-3.6-7.5c-0.6-1.2-1.5-1.3-3-0.6c-2.5,1.1-4.9,2.3-7.3,3.5
			c-1,0.5-2,1-3.4,1.7c1.4,2.8,2.7,5.4,4.2,8c0.7,1.2,2,1.3,3.3,1c0.7-0.1,1.4-0.3,2.4-0.6c-0.7,1.9-2.4,1.8-3.6,2.5
			c-1.2,0.8-2.6,1.4-3.9,2c-1.3,0.6-2.4,1.5-3.9,1.7c-0.1-0.1-0.2-0.3-0.3-0.4c0.5-0.4,0.9-0.8,1.4-1.2c2.5-1.6,2.9-2.9,1.8-5.6
			c-0.4-1-0.8-2-1.3-2.9c-0.6-1.1-1.2-2.1-1.9-3.4c-0.7,0.2-1.3,0.3-1.9,0.6c-3.5,1.7-6.9,3.3-10.4,5c-2,1-2.2,1.7-1.3,3.7
			c0.9,2,1.9,4,3,6c1.4,2.6,3.6,3.7,6.5,3.4c0.9-0.1,1.9-0.6,2.9,0.2c-0.2,0.3-0.3,0.6-0.5,0.6c-2.3,0.5-4.7,0.9-7,1.5
			c-1,0.2-1.5-0.1-2-1c-2.6-5.1-5.2-10.2-7.8-15.3c-0.5-0.9-0.7-2-1.1-3c-0.7-1.6-1.4-3.2-2.2-4.8c-0.5-1-0.4-1.7,0.3-2.5
			c3-3.9,5.9-7.8,9.1-11.6c1.3-1.5,1.7-2.8,0.6-4.4c-0.2-0.3-0.3-0.7-0.6-1.1c-0.6,0.2-1.3,0.2-1.8,0.5c-3,1.4-6,2.9-8.9,4.4
			c-2.6,1.3-2.7,1.8-2.1,4.7c0.1,0.6,0.1,0.6-0.8,1.3c-1.4-2.7-2.7-5.5-4.1-8.2c-0.7-1.4-1.4-2.7-2.1-4.1c-0.7-1.3-0.6-2.4,0.4-3.6
			c2.1-2.4,4.1-5,6.1-7.5c1.3-1.6,2.4-3.3,3.6-5.1c0.3-0.4,0.3-1.2,0.2-1.7c-0.3-0.8-0.8-1.6-1.4-2.5c-3,1.4-5.7,2.7-8.5,4.1
			c-0.6,0.3-1.2,0.6-1.9,0.9c-2.2,1.1-2.7,2.1-2.3,4.6c0.1,0.6,0.1,0.6-0.8,1.5c-1.5-3-3-6-4.5-9c-0.1-0.2,0.2-0.5,0.4-0.9
			c0.4,0.2,0.7,0.3,0.8,0.5c1.4,1.7,2.1,2,4.2,1.1c2.5-1,4.9-2.2,7.3-3.4c5.3-2.6,10.6-5.2,15.9-7.8c0.5-0.2,0.9-0.6,1.4-0.8
			c1.6-0.7,2.2-1.8,1.8-3.5c-0.1-0.4-0.1-0.9-0.2-1.8c0.7,0.4,1.2,0.6,1.4,0.9c1.8,3.6,3.5,7.1,5.2,10.8c1.3,2.7,1.2,5.4-0.2,8.1
			c-1.7,3.1-6.3,5.5-9.8,4.7c-1.6-0.4-3.1-0.8-4.4-2C2846,1093.5,2845.2,1093.1,2844.3,1092.5"/>
		<path class="st7" d="M2742.9,876.8c0.5,0.1,1,0.1,1.1,0.2c2,3.9,3.9,7.8,5.8,11.7c0.1,0.2-0.2,0.5-0.4,0.9c-0.5-0.4-1-0.6-1.3-1
			c-0.9-1.3-2.1-1.5-3.5-1.1c-1.3,0.4-2.6,0.9-3.9,1.5c-2.9,1.3-5.9,2.7-8.7,4.2c-1,0.5-1.7,0.4-2.6,0c-8-4.3-14-14.2-9.8-24.3
			c0.7-1.7,1.8-3.4,3-4.9c6.9-8.8,18.9-12.5,28.8-9.4c5.8,1.8,9.7,5.5,11.6,11.2c0.7,1.9,1.1,4,1.6,6c0.4,1.6,0.6,3.2,2.5,3.8
			c0.1,0,0.2,0.4,0.3,0.8c-3.9,2-7.7,4-11.6,6.1c-0.9-0.9-0.6-1.5,0.2-2.1c1.5-1.1,2.6-2.4,3.6-4.1c3.4-5.9,1.7-13.1-5.3-17
			c-2-1.1-4.2-1.6-6.5-1.5c-8.3,0.2-15.8,2.8-21.4,8.9c-4.3,4.6-6.1,10.3-3.6,16.6c0.9,2.4,2.5,4.3,4.9,5.6c1,0.5,1.8,0.6,2.9,0.1
			c3.6-1.8,7.2-3.5,10.7-5.4c2.4-1.3,2.7-2.2,1.9-4.9C2743,878,2743,877.5,2742.9,876.8"/>
		<path class="st7" d="M2798.6,1041c1.1-0.7,1.7-0.3,2,0.4c0.7,1.8,2.1,2,3.6,1.6c2.3-0.7,4.6-1.7,6.8-2.8c5.5-2.6,10.9-5.4,16.3-8
			c2.6-1.3,5.3-2.6,7.9-3.9c0.8-0.4,1.6-1,2.3-1.5c1-0.8,1.3-1.9,1-3.1c-0.1-0.4-0.4-0.7-0.3-1.1c0-0.4,0.3-0.8,0.4-1.2
			c0.4,0.2,0.9,0.3,1,0.6c1.2,2.2,2.2,4.5,3.3,6.8c2.3,4.7,4.7,9.3,7,13.9c0.3,0.5,0.6,1.1,0.7,1.7c0,0.4-0.2,1.1-0.5,1.3
			c-2.5,1.4-5.1,2.8-7.7,4.1c-0.3,0.2-0.7,0.1-1.4,0.1c0.3-0.6,0.4-1,0.7-1.3c0.6-0.5,1.4-0.9,2.1-1.4c2.4-1.9,3.1-4.4,2-7.2
			c-1.2-2.9-2.7-5.7-4.2-8.4c-0.7-1.3-1.6-1.5-3.1-0.7c-4.4,2.1-8.8,4.3-13.5,6.6c0.3,0.8,0.6,1.6,0.9,2.3c0.9,1.9,1.9,3.7,2.8,5.5
			c1.3,2.6,3.1,3.4,6.1,2.7c0.5-0.1,1.1-0.2,1.7,0c-1.1,1.6-2.9,1.9-4.3,2.7c-1.5,0.9-3.1,1.6-4.8,2.3c-1.5,0.6-2.8,2.1-4.6,1.9
			c-0.1-0.2-0.2-0.3-0.3-0.5c0.4-0.3,0.7-0.7,1.1-0.9c3.7-1.9,4.4-4,2.7-7.7c-1.1-2.3-2.2-4.5-3.4-6.9c-0.8,0.3-1.5,0.4-2.1,0.7
			c-4.2,2-8.3,4.1-12.4,6.1c-0.6,0.3-1.2,0.7-1.8,1.1c-1.3,0.9-1.8,2.1-1.2,3.6c0.1,0.2,0.3,0.4,0.2,0.6c0,0.5-0.2,0.9-0.3,1.4
			c-0.4-0.3-1-0.4-1.1-0.8c-1.2-2.3-2.3-4.7-3.5-7C2799.9,1043.5,2799.2,1042.3,2798.6,1041"/>
		<path class="st7" d="M2769.6,918.3c0.7-1.4,1.7-3,2.4-4.7c1.8-4.4-0.3-9.2-4.6-11.2c-2.8-1.3-5.8-1.6-8.8-1
			c-5.6,1.1-10.5,3.6-14.4,7.7c-1.9,2-3.3,4.5-3.5,7.3c-0.5,4.8,2.5,9.5,8.6,10.2C2757.6,927.7,2763.9,924,2769.6,918.3
			 M2742.1,906.1c4.7-6.7,14.5-10.1,22.1-7.9c11.1,3.2,13.7,15.5,7.5,23.4c-4.7,5.9-10.7,8.7-18.2,8.7c-4.7,0-8.7-1.8-11.7-5.2
			c-3.2-3.6-4.1-8.1-2.9-12.7C2739.5,910,2740.4,907.6,2742.1,906.1"/>
		<path class="st7" d="M2813.8,1006.4c0.6-1.2,1.6-2.6,2.2-4.2c1.1-3.1,1.2-6.2-1-8.9c-2.4-3-5.7-4.1-9.4-3.9
			c-7.1,0.4-13.1,3.3-17.7,8.7c-2.3,2.6-3.6,5.7-2.9,9.3c0.8,4.4,4.6,7.5,9.6,7.7C2802.3,1015.4,2808.3,1011.9,2813.8,1006.4
			 M2786.5,994c4.8-5.9,11-8.8,18.6-8.1c11.2,1,16.6,11.3,12.7,20.4c-4.1,9.5-16.8,15.2-26.8,10.7c-6.9-3.1-10.2-9.9-7.7-17.3
			C2783.9,997.6,2785,995.7,2786.5,994"/>
		<path class="st7" d="M2911.5,1188c-2.7,0.5-4.4,2.7-7.1,3c0-1.1,0.8-1.4,1.4-1.8c2.8-1.9,3.3-3.9,1.9-6.9c-0.6-1.2-1.3-2.4-2-3.6
			c-3.8,1.8-7.3,3.5-10.9,5.2c-3.7,1.8-7.5,3.7-11.2,5.5c-1.3,0.6-2.6,1.3-3.9,2c-2,1.1-2.3,1.9-1.9,4.1c0.1,0.5,0.1,1,0.1,1.5
			c0,0.1-0.2,0.2-0.6,0.4c-1.8-3.6-3.6-7.2-5.4-10.8c0.2-0.1,0.3-0.3,0.5-0.4c0.4,0.3,1,0.6,1.3,1c1.4,2,3.1,2.2,5.3,1.2
			c4.6-2.2,9.2-4.4,13.7-6.6c3.3-1.6,6.6-3.3,9.9-4.9c1.6-0.8,1.7-1,1-2.6c-0.4-0.9-0.8-1.8-1.3-2.7c-1.3-2.3-2.7-2.9-5.4-2.5
			c-0.8,0.1-1.6,0.4-2.5,0.5c-0.2,0-0.5-0.2-1.3-0.4c2.9-1.6,5.6-2.5,8.3-3.8c5.5,10.9,10.8,21.6,16.2,32.4c0.1,0.1-0.1,0.4-0.3,0.9
			c-0.5-0.5-1-0.8-1.3-1.2c-0.9-1.3-2.1-1.5-3.5-1.1c-0.8,0.2-1.6,0.5-2.4,0.9c-6.8,3.3-13.5,6.7-20.3,10c-0.5,0.2-1,0.5-1.4,0.7
			c-2.3,1.2-2.7,2.2-2.2,4.8c0.1,0.3,0,0.7,0,1.3c-0.5-0.2-0.9-0.2-1-0.3c-1.7-3.4-3.4-6.8-5-10.2c0.1-0.1,0.3-0.3,0.4-0.4
			c0.4,0.2,0.8,0.3,1.1,0.7c1.8,2.4,3,2.8,5.6,1.6c4.7-2.2,9.4-4.6,14.1-6.9c2.4-1.2,4.8-2.4,7.2-3.6c0.6-0.3,1.2-0.7,1.8-1
			c1.6-1,2-2.4,1.5-4.2C2911.9,1189.2,2911.7,1188.7,2911.5,1188"/>
		<path class="st7" d="M2784.7,968.8c1.6,3,3.1,6,4.6,9c0.1,0.2-0.2,0.7-0.3,1c-0.3-0.1-0.7,0-0.8-0.2c-1.4-2-3.1-1.6-4.9-0.7
			c-2.2,1.1-4.5,2.1-6.6,3.3c-2,1.1-3.6,1-5.5-0.2c-4.6-2.8-7.8-9.5-7-14.8c0.6-4,2.8-7.2,5.7-9.7c4.5-4,9.8-6.3,16-6.1
			c7.9,0.3,13.3,4.2,15.1,12.5c0,0.1,0,0.1,0,0.2c0.4,1.8,0.3,3.9,2.4,4.8c-1.8,1.6-8.2,4.8-9.6,4.8c-0.4-0.8,0.3-1,0.7-1.4
			c1.2-1.4,2.5-2.7,3.3-4.3c2.7-5.9-1.6-12.6-8.3-13.1c-7.7-0.5-14.5,2-19.6,7.9c-3,3.6-4.2,7.8-2.4,12.4c0.8,2.1,2.5,3.3,4.3,4.3
			c0.5,0.3,1.4,0.1,2-0.2c2.9-1.3,5.7-2.7,8.5-4.1c1.6-0.8,1.9-1.8,1.6-3.6c-0.1-0.5,0-1,0-1.5
			C2784.3,969,2784.5,968.9,2784.7,968.8"/>
		<path class="st7" d="M2767.5,934.1c0.3,2.1,1.3,3.7,2.5,5.2c2,2.7,4.8,3.6,8,2.7c3.9-1.1,6.9-4.3,5.8-8.7
			c-0.4-1.7-1.5-3.3-2.4-4.8c-0.4-0.8-1.2-0.5-1.9-0.2C2775.6,930.1,2771.7,932.1,2767.5,934.1 M2758.7,960.2
			c-0.9-1.7-1.6-3.4-2.5-5c-0.4-0.8-0.4-1.4,0.1-2.1c0.4-0.6,0.7-1.3,1.2-1.9c2.6-3.5,5.2-7,8-10.4c1.3-1.6,1.5-2.9,0.3-4.5
			c-0.1-0.2-0.2-0.4-0.4-0.6c0-0.1-0.1-0.1-0.3-0.2c-0.4,0.1-0.9,0.3-1.3,0.5c-3,1.4-5.9,2.9-8.9,4.4c-2.3,1.2-2.7,2.1-2.2,4.8
			c0.1,0.4-0.2,0.8-0.6,1.3c-1.5-3.3-3.8-6.2-4.8-9.6c0.2-0.1,0.3-0.2,0.5-0.4c0.4,0.3,0.9,0.5,1.1,0.9c0.8,1.4,1.9,1.4,3.2,1.1
			c0.7-0.2,1.3-0.4,2-0.7c7.5-3.7,15.1-7.3,22.6-11.1c3-1.5,3-1.6,2.6-5c0-0.2,0.1-0.4,0.3-0.9c0.5,0.4,1,0.7,1.2,1.1
			c1.7,3.4,3.4,6.9,5,10.3c2.5,5.2,0.3,10.1-4.6,12.4c-3.4,1.6-6.6,0.9-9.6-1.1c-2.3-1.6-2.2-1.7-3.9,0.4c-2.1,2.7-4.2,5.3-6.2,8
			c-1.5,2.1-2.7,4.3-1.8,7c0.1,0.3,0,0.6-0.1,0.9C2759.3,959.9,2759.1,959.9,2758.7,960.2"/>
		<path class="st7" d="M2843.4,1073.8c-3.7,1.8-7.3,3.5-10.9,5.2c-0.1,0-0.4-0.2-0.7-0.4c0.7-0.5,1.3-0.9,1.9-1.3
			c2-1.5,2.4-3,1.3-5.2c-1-2.2-2.2-4.3-3.4-6.6c-1.8,0.8-3.3,1.5-4.8,2.2c-2.6,1.2-5.1,2.5-7.6,3.8c-1.8,0.9-2,1.4-1.2,3.3
			c1.1,2.4,2.2,4.7,3.5,7c1.2,2,3.2,2.8,5.5,2.7c1.1-0.1,2.1-0.1,3.4-0.2c-0.2,0.4-0.3,1-0.6,1c-2.7,0.6-5.4,1.1-8.1,1.6
			c-3.3-6.5-6.6-12.7-9.8-19c0.1-0.1,0.3-0.3,0.4-0.4c0.4,0.3,0.9,0.5,1.3,0.9c1,1.3,2.3,1.4,3.8,1c1-0.3,2-0.7,3-1.2
			c7.1-3.5,14.2-7,21.3-10.5c0.3-0.2,0.6-0.4,1-0.6c1.8-1.2,2.1-1.7,1.5-3.8c-0.2-0.6-0.5-1.2,0.6-1.7c1.8,3.1,3.3,6.4,5,9.6
			c1.7,3.2,3.3,6.3,5,9.6c-2.5,1.2-4.5,3-7,3.7c-0.1-0.2-0.3-0.4-0.4-0.6c0.5-0.4,1.1-0.9,1.6-1.3c1.9-1.4,2.6-3,1.7-5.1
			c-1.1-2.5-2.3-5-3.6-7.4c-0.7-1.3-1.4-1.4-2.7-0.8c-3.2,1.5-6.4,3.1-9.6,4.6c-0.9,0.4-1.1,1.1-0.8,1.9c1.1,2.3,2.2,4.5,3.5,6.7
			c0.8,1.3,2.2,1.6,3.7,1.2c0.6-0.1,1.2-0.2,1.8-0.3C2843,1073.2,2843.1,1073.4,2843.4,1073.8"/>
		<path class="st7" d="M2891.8,1165.9c0.7-0.6,1.3-1.1,2-1.7c2.3-1.8,2.9-3.7,1.6-6.4c-0.6-1.2-1.2-2.5-1.9-3.8
			c-0.6,0.2-1.1,0.3-1.6,0.6c-7.8,3.8-15.6,7.6-23.4,11.4c-0.5,0.2-0.9,0.5-1.4,0.8c-1.8,1.2-2.1,1.9-1.6,4c0.2,0.7,0.5,1.3-0.6,1.8
			c-1.8-3.5-3.5-7-5.3-10.5c0.8-0.7,1.2-0.3,1.6,0.2c1.8,2.2,2.8,2.5,5.3,1.5c1.5-0.6,2.9-1.4,4.4-2.1c6.4-3.1,12.7-6.2,19-9.3
			c0.7-0.3,1.3-0.8,2-1.3c-0.8-1.7-1.5-3.3-2.4-4.8c-0.8-1.3-2-2.1-3.7-1.9c-1.1,0.1-2.1,0.4-3.2,0.5c-0.4,0.1-0.9-0.1-1.4-0.1
			c0-0.2-0.1-0.4-0.1-0.5c2.5-1.1,5.1-2.3,7.8-3.5c1,2.1,2,4,3,6c2.3,4.6,4.6,9.3,7,13.9c0.9,1.7,0.8,1.9-0.9,2.8
			c-1.4,0.7-2.8,1.6-4.2,2.3c-0.6,0.3-1.2,0.5-1.8,0.7C2892,1166.4,2891.9,1166.1,2891.8,1165.9"/>
		<path class="st7" d="M2904,1218.8c-3.5,4.7-3.6,11.6,1.9,15.7c5,3.7,11.6,3.5,15.8-2.1c4.1-5.3,3.3-11.5-1.9-15.5
			C2914.5,1212.8,2908.3,1213.9,2904,1218.8 M2902.9,1217.2c4.9-5.4,12.5-6.4,18.3-1.7c6.6,5.3,6.4,13.4,1.6,18.8
			c-5.3,6-13.4,5.6-18.3,1.4C2898.9,1231.1,2898,1223,2902.9,1217.2"/>
		<path class="st7" d="M2765.4,892.7c-0.3-0.3-0.7-0.5-1-0.9c-1.4-1.8-2.5-2.1-4.6-1.3c-1.1,0.5-2.3,1-3.4,1.5
			c-6.7,3.3-13.4,6.6-20.1,9.9c-0.7,0.3-1.4,0.7-2,1.2c-1.1,0.8-1.4,2-1,3.3c0.2,0.6,0.6,1.3-0.3,1.9c-1.4-0.7-1.2-2.3-1.9-3.4
			c-0.7-1.1-1.2-2.3-1.8-3.5c-0.6-1.2-1.2-2.4-1.8-3.5c0.1-0.1,0.2-0.2,0.4-0.3c0.4,0.1,0.8,0.2,1.1,0.4c2.2,2.5,3,2.8,6.1,1.4
			c3.5-1.6,6.9-3.3,10.4-5c3.8-1.9,7.6-3.7,11.4-5.6c0.6-0.3,1.2-0.7,1.8-1c1.6-0.8,1.8-2.2,1.6-3.7c-0.1-0.7-0.3-1.4-0.5-2.4
			c0.6,0.1,1.1,0.1,1.1,0.3c1.5,3.5,3.7,6.7,4.9,10.3C2765.7,892.4,2765.5,892.6,2765.4,892.7"/>
		<path class="st7" d="M2771.9,984.4c0.5,0.6,0.9,0.9,1.1,1.3c1.1,1.6,2,2.1,3.9,1.6c1.1-0.3,2.2-0.7,3.2-1.3
			c6.8-3.3,13.5-6.6,20.3-9.9c0.3-0.1,0.6-0.3,0.8-0.4c3-1.7,3.2-2.1,2.5-5.5c0-0.3,0-0.6-0.1-1.3c0.6,0.4,1.2,0.6,1.3,0.9
			c1.4,2.8,2.8,5.6,4.3,8.4c0.4,0.8,0.3,1.3-0.6,1.5c-0.1,0-0.2-0.1-0.2-0.1c-1.8-2.5-3.1-2.8-6-1.4c-6.3,3-12.6,6.1-18.8,9.2
			c-1.6,0.8-3.2,1.5-4.7,2.4c-2,1.2-2.3,1.9-1.8,4.2c0.1,0.6,0.5,1.2-0.7,1.6c-1.6-3.3-3.3-6.5-4.9-9.9
			C2771.4,985.5,2771.7,985.1,2771.9,984.4"/>
		<path class="st7" d="M2913,1223.7l0.6,1.2c0.7,1.5,1.9,2,3.1,1.4c1.2-0.6,1.4-1.7,0.7-3.1c-0.4-0.7-0.6-1.1-0.8-1.3L2913,1223.7z
			 M2917.2,1217.9c0.6,0.9,1.5,2.2,2.3,3.8c1,2,1.4,3.5,1.1,4.8c-0.2,1.1-1,2-2.2,2.6c-1.7,0.8-3.4,0.2-4.4-0.7l-0.1,0
			c0.1,1.1-0.5,2-1.6,3c-1.3,1.2-2.9,2.4-3.2,2.9l-1.5-3.1c0.3-0.4,1.2-1.2,2.7-2.4c1.5-1.2,1.6-2,1-3.2l-0.4-0.9l-5.2,2.6l-1.5-3
			L2917.2,1217.9z"/>
		<path class="st7" d="M2665,826.7c-0.2,0-0.4-0.5-0.4-0.7c0-0.2,0.3-0.6,0.5-0.6c1.1-0.1,2.2,0,3.7,0.6
			C2667.2,827.1,2666.1,826.8,2665,826.7 M2656.1,820.8c-4.7-1.6-9.3-3.3-13.5-5.8c-3.1-1.8-5.9-3.9-7.9-7c-1.8-2.9-2.6-5.9-2-9.3
			c1.5-7.6,6.1-12.9,12.3-17c3.3-2.2,7-3.5,10.8-4.6c0.5-0.2,1-0.1,1.9-0.2v2.1c0,13.5,0,26.9,0,40.4
			C2657.8,820.9,2657.4,821.3,2656.1,820.8 M2709.7,806.6c0.3,0.8,0.4,1.5,0.8,1.7c1.1,0.6,1.1,1.5,1.1,2.5c0,3,0,6,0,8.9
			c0,1.7-0.3,2.4-2,2.8c-6.8,1.9-18.2,1.2-24.2,1.3c-11.4,0.1-19.1-2-20.5-2.4c0.2-3.1,0.4-5.8,0.6-8.5c0.6-7.6,1.2-15.2,1.8-22.8
			c0.1-1.6,0.3-1.8,2-1.8c3.2,0,6.3,0,9.5,0c1.1,0,1.7,0.3,2.3,1.2c1.2,1.8,2.5,3.5,3.7,5.3c0.4,0.7,0.8,1.4,1.2,2.1
			c0.2-0.1,0.4-0.1,0.6-0.2c0-6.1,0-12.3,0-18.4c0-0.3-0.2-0.6-0.4-1.1c-1.2,2.3-2.4,4.5-3.5,6.6c-0.5,0.9-1.1,1.5-2.1,1.5
			c-3.9,0-7.9,0-11.8,0c-0.8,0-1.3-0.3-1.5-1.2c-0.6-2.9-1.3-5.8-1.9-8.7c-0.1-0.4,0-0.9,0-1.4c2.8-0.3,5.6-0.8,8.3-1
			c3.9-0.2,7.9-0.2,11.8-0.2c4.4,0,8.8,0.6,13.1,1.6c5.5,1.3,10.7,3.3,15.6,6.2c1,0.6,2.1,1,3.2,1.2c1.1,0.2,2.5-0.8,2.9-1.9
			c0.5-1.2-0.1-2.1-1-2.8c-0.8-0.6-1.7-1.2-2.6-1.5c-3.6-1-7.1-1.9-10.7-2.7c-6.8-1.4-13.7-1.9-20.7-2c-6.5-0.1-13-0.3-19.4,0.9
			c-0.4,0.1-0.7,0-1.3-0.1c-0.5-2.7-1.1-5.3-1.5-7.9c-0.3-2.6,1.2-4.2,4-4.2c8.2,0,16.4,0,24.6,0c1.1,0,2,0.3,2.6,1.1
			c0.8,1.2,1.5,2.5,2.2,3.7c0.4,0.6,0.4,1.7,1.7,1.7c-0.1-0.7-0.1-1.3-0.2-1.9c-0.3-1.7,0.2-3,1.6-4c0.3-0.2,0.6-0.5,0.9-0.7
			c0.6-0.5,0.7-1,0.1-1.8h-2.1c-13.1,0-26.2,0-39.4,0c-1.6,0-6.7-0.3-6.7,1.3c0.1,1.3,2.5,1,3.5,1.3c2.1,0.6,2,0.5,2,2.8
			c0,2.1,0,4.3,0,6.3c0,4.5,0.6,3.7-3.4,4.9c-0.5,0.2-1,0.3-1.5,0.5c-8.8,2.7-17.1,6.3-24.1,12.3c-2.4,2-4.3,4.5-5.6,7.2
			c-1,2.2-1.5,4.6-1,7.1c0.9,4.3,3,8,6.2,11c2.9,2.7,6.3,4.7,9.9,6.3c5.6,2.5,11.4,4.1,17.5,5.2c0.5,0.1,1.1,0.1,1.5,0.4
			c0.4,0.3,0.6,0.9,0.5,1.3c-0.1,0.4-0.5,1-0.9,0.9c-0.8,0-1.6-0.3-2.3-0.6c-0.5-0.2-0.9-0.6-1.6-1.1c0,1.6,0,2.9,0,4.3h16.8
			c0-0.7,0.1-1.2,0.1-1.7c0.1-1.6,0.3-1.9,1.9-1.8c3.4,0.1,6.8,0.3,10.2,0.3c8.9,0,17.9,0.3,26.8-0.7c2.8-0.3,5.5-0.7,8.1-1.9
			c1.6-0.8,2.5-1.8,2.4-3.8c-0.2-3,0-6-0.1-8.9c0-0.9,0-1.8,0.8-2.5c0.4-0.3,0.4-1,0.7-1.7H2709.7"/>
		<path class="st7" d="M2429.7,1319.3c-0.2,0-0.4-0.5-0.4-0.7c0-0.2,0.3-0.6,0.5-0.6c1.1-0.1,2.2,0,3.7,0.6
			C2431.9,1319.7,2430.8,1319.5,2429.7,1319.3 M2420.8,1313.5c-4.7-1.6-9.3-3.3-13.5-5.8c-3.1-1.8-5.9-3.9-7.9-7
			c-1.8-2.9-2.6-5.9-1.9-9.4c1.5-7.6,6.1-12.9,12.3-17c3.3-2.2,7-3.5,10.8-4.6c0.5-0.1,1-0.1,1.9-0.1c0,0.9,0,1.5,0,2.1
			c0,13.5,0,26.9,0,40.4C2422.5,1313.5,2422.2,1313.9,2420.8,1313.5 M2474.4,1299.2c0.4,0.8,0.4,1.5,0.8,1.7
			c1.1,0.6,1.1,1.5,1.1,2.5c0,3,0,6,0,8.9c0,1.7-0.3,2.4-2,2.8c-6.8,1.9-18.2,1.2-24.2,1.3c-11.4,0.1-19.1-2-20.5-2.4
			c0.2-3.1,0.4-5.8,0.6-8.5c0.6-7.6,1.2-15.2,1.8-22.8c0.1-1.6,0.3-1.8,2-1.8c3.2,0,6.3,0,9.5,0c1.1,0,1.7,0.3,2.3,1.2
			c1.2,1.8,2.5,3.5,3.7,5.3c0.4,0.7,0.8,1.4,1.2,2.1c0.2-0.1,0.4-0.1,0.6-0.2c0-6.1,0-12.3,0-18.4c0-0.3-0.2-0.6-0.4-1.1
			c-1.2,2.3-2.4,4.5-3.5,6.6c-0.5,0.9-1.1,1.5-2.1,1.5c-3.9,0-7.9,0-11.8,0c-0.8,0-1.3-0.3-1.5-1.2c-0.6-2.9-1.3-5.8-1.9-8.7
			c-0.1-0.4,0-0.9,0-1.4c2.8-0.3,5.6-0.8,8.3-1c3.9-0.2,7.9-0.2,11.8-0.2c4.4,0,8.8,0.6,13.1,1.6c5.5,1.3,10.7,3.3,15.6,6.2
			c1,0.6,2.1,1,3.2,1.2c1.1,0.2,2.5-0.8,2.9-1.9c0.5-1.2-0.1-2.1-1-2.8c-0.8-0.6-1.7-1.2-2.6-1.5c-3.6-1-7.1-1.9-10.7-2.7
			c-6.8-1.4-13.7-1.9-20.7-2c-6.5-0.1-13-0.3-19.4,0.9c-0.4,0.1-0.7,0-1.3-0.1c-0.5-2.7-1.1-5.2-1.5-7.9c-0.3-2.6,1.2-4.2,4-4.2
			c8.2,0,16.4,0,24.6,0c1.1,0,2,0.3,2.6,1.1c0.8,1.2,1.5,2.5,2.2,3.7c0.4,0.6,0.4,1.7,1.7,1.7c-0.1-0.7-0.1-1.3-0.2-1.9
			c-0.3-1.7,0.2-3,1.6-4c0.3-0.2,0.6-0.5,0.9-0.7c0.6-0.5,0.7-1,0.1-1.8h-2.1c-13.1,0-26.2,0-39.4,0c-1.6,0-6.7-0.3-6.7,1.3
			c0.1,1.3,2.5,1,3.5,1.3c2.1,0.6,1.9,0.5,2,2.8c0,2.1,0,4.3,0,6.3c0,4.5,0.6,3.7-3.4,4.9c-0.5,0.2-1,0.3-1.5,0.5
			c-8.8,2.7-17.1,6.3-24.1,12.3c-2.4,2-4.3,4.5-5.6,7.2c-1,2.2-1.5,4.6-1,7.1c0.9,4.3,3,8,6.2,11c2.9,2.7,6.3,4.7,9.9,6.3
			c5.6,2.5,11.4,4.1,17.5,5.2c0.5,0.1,1.1,0.1,1.5,0.4c0.4,0.3,0.6,0.9,0.5,1.3c-0.1,0.4-0.5,0.9-0.9,0.9c-0.8,0-1.6-0.3-2.3-0.6
			c-0.5-0.2-0.9-0.6-1.6-1.1c0,1.6,0,2.9,0,4.3h16.8c0-0.7,0.1-1.2,0.1-1.7c0.1-1.6,0.3-1.9,1.9-1.8c3.4,0.1,6.8,0.3,10.2,0.3
			c8.9,0,17.9,0.3,26.8-0.7c2.8-0.3,5.5-0.7,8.1-1.9c1.6-0.7,2.5-1.8,2.4-3.8c-0.2-3,0-6-0.1-8.9c0-0.9,0-1.8,0.9-2.5
			c0.4-0.3,0.4-1,0.7-1.7H2474.4"/>
		<path class="st7" d="M2904.9,1319.3c-0.2,0-0.4-0.5-0.4-0.7c0-0.2,0.3-0.6,0.5-0.6c1.1-0.1,2.2,0,3.7,0.6
			C2907.1,1319.7,2906,1319.5,2904.9,1319.3 M2896,1313.5c-4.7-1.6-9.3-3.3-13.5-5.8c-3-1.8-5.9-3.9-7.9-7c-1.8-2.9-2.6-5.9-1.9-9.4
			c1.5-7.6,6.1-12.9,12.3-17c3.3-2.2,7-3.5,10.8-4.6c0.5-0.1,1-0.1,1.9-0.1v2.1c0,13.5,0,26.9,0,40.4
			C2897.7,1313.5,2897.3,1313.9,2896,1313.5 M2949.6,1299.2c0.4,0.8,0.4,1.5,0.8,1.7c1.2,0.6,1.1,1.5,1.1,2.5c0,3,0,6,0,8.9
			c0,1.7-0.3,2.4-2,2.8c-6.8,1.9-18.2,1.2-24.2,1.3c-11.4,0.1-19.1-2-20.5-2.4c0.2-3.1,0.4-5.8,0.6-8.5c0.6-7.6,1.2-15.2,1.8-22.8
			c0.1-1.6,0.3-1.8,2-1.8c3.2,0,6.3,0,9.5,0c1,0,1.7,0.3,2.3,1.2c1.2,1.8,2.5,3.5,3.7,5.3c0.4,0.7,0.8,1.4,1.2,2.1
			c0.2-0.1,0.4-0.1,0.6-0.2c0-6.1,0-12.3,0-18.4c0-0.3-0.2-0.6-0.4-1.1c-1.2,2.3-2.4,4.5-3.5,6.6c-0.5,0.9-1.1,1.5-2.1,1.5
			c-3.9,0-7.9,0-11.8,0c-0.8,0-1.3-0.3-1.5-1.2c-0.6-2.9-1.3-5.8-1.9-8.7c-0.1-0.4,0-0.9,0-1.4c2.8-0.3,5.6-0.8,8.3-1
			c3.9-0.2,7.9-0.2,11.8-0.2c4.4,0,8.8,0.6,13.1,1.6c5.5,1.3,10.7,3.3,15.6,6.2c1,0.6,2.1,1,3.2,1.2c1.1,0.2,2.5-0.8,2.9-1.9
			c0.5-1.2-0.1-2.1-1-2.8c-0.8-0.6-1.7-1.2-2.6-1.5c-3.6-1-7.1-1.9-10.7-2.7c-6.8-1.4-13.7-1.9-20.7-2c-6.5-0.1-13-0.3-19.4,0.9
			c-0.3,0.1-0.7,0-1.3-0.1c-0.5-2.7-1.1-5.2-1.5-7.9c-0.3-2.6,1.2-4.2,4-4.2c8.2,0,16.4,0,24.5,0c1.1,0,2,0.3,2.7,1.1
			c0.8,1.2,1.5,2.5,2.2,3.7c0.4,0.6,0.4,1.7,1.7,1.7c-0.1-0.7-0.1-1.3-0.2-1.9c-0.3-1.7,0.2-3,1.6-4c0.3-0.2,0.6-0.5,0.9-0.7
			c0.6-0.5,0.7-1,0.1-1.8h-2.1c-13.1,0-26.3,0-39.4,0c-1.6,0-6.7-0.3-6.7,1.3c0.1,1.3,2.5,1,3.5,1.3c2.1,0.6,2,0.5,2,2.8
			c0,2.1,0,4.3,0,6.3c0,4.5,0.6,3.7-3.4,4.9c-0.5,0.2-1,0.3-1.5,0.5c-8.8,2.7-17.1,6.3-24.1,12.3c-2.4,2-4.3,4.5-5.6,7.2
			c-1,2.2-1.5,4.6-1,7.1c0.9,4.3,3,8,6.2,11c2.9,2.7,6.3,4.7,9.9,6.3c5.6,2.5,11.4,4.1,17.4,5.2c0.5,0.1,1.1,0.1,1.5,0.4
			c0.4,0.3,0.6,0.9,0.5,1.3c-0.1,0.4-0.5,0.9-0.9,0.9c-0.8,0-1.6-0.3-2.3-0.6c-0.5-0.2-0.9-0.6-1.6-1.1c0,1.6,0,2.9,0,4.3h16.8
			c0-0.7,0.1-1.2,0.1-1.7c0.1-1.6,0.3-1.9,1.9-1.8c3.4,0.1,6.8,0.3,10.2,0.3c8.9,0,17.9,0.3,26.8-0.7c2.8-0.3,5.5-0.7,8.1-1.9
			c1.6-0.7,2.5-1.8,2.4-3.8c-0.2-3,0-6-0.1-8.9c0-0.9,0-1.8,0.9-2.5c0.4-0.3,0.4-1,0.7-1.7H2949.6"/>
	</g>
</g>
</svg>
